<svg xmlns="http://www.w3.org/2000/svg" version="1.1" xmlns:xlink="http://www.w3.org/1999/xlink" width="512" height="512" x="0" y="0" viewBox="0 0 510 510" style="enable-background:new 0 0 512 512" xml:space="preserve" fill-rule="evenodd" class=""><g><path d="M204.296 428.093c-5.832 2.179-11.574 4.029-17.176 5.531a6.993 6.993 0 0 1-3.627 0c-37.442-10.045-81.263-35.739-115.682-71.33C33.079 326.378 8 280.447 8 230.63V81.829a7 7 0 0 1 6.447-6.978c46.217-3.664 86.469-23.95 116.905-45.688a7.007 7.007 0 0 1 4.069-1.303h99.771a7.01 7.01 0 0 1 4.069 1.303c30.436 21.738 70.688 42.024 116.905 45.688a7 7 0 0 1 6.447 6.978V230.63c0 27.841-7.81 54.46-20.78 78.802h35.435c8.966 0 16.241 7.274 16.241 16.24v103.919c0 10.809-8.763 19.572-19.572 19.572h-45.476c.805 8.957 3.411 17.771 6.356 21.936a7.002 7.002 0 0 1-5.716 11.041h-60.387a7.002 7.002 0 0 1-5.716-11.041c2.944-4.163 5.34-12.982 6.017-21.936h-45.137c-10.823 0-19.582-8.765-19.582-19.572zm121.506-118.661c14.062-24.074 22.811-50.745 22.811-78.802V88.192c-45.36-5.052-85.063-24.816-115.65-46.332H137.65C107.063 63.376 67.36 83.14 22 88.192V230.63c0 46.204 23.661 88.621 55.875 121.932 31.974 33.062 72.455 57.213 107.432 67.042 6.182-1.738 12.538-3.926 18.989-6.531v-16.408a183.166 183.166 0 0 1-16.899 6.243 6.983 6.983 0 0 1-4.181 0c-41.446-12.971-85.733-44.621-114.508-84.241-19.489-26.834-31.846-57.299-31.846-88.045V107.097a7 7 0 0 1 5.745-6.887c35.153-6.405 68.215-21.437 97.838-41.506a6.997 6.997 0 0 1 3.926-1.204h81.893c1.401 0 2.769.42 3.929 1.206 29.599 20.068 62.66 35.099 97.813 41.504a7 7 0 0 1 5.745 6.887v123.525c0 27.274-9.721 54.322-25.512 78.81zM223.878 435.163h150.059a5.572 5.572 0 0 0 5.572-5.572v-5.448H218.296v5.448a5.576 5.576 0 0 0 5.582 5.572zm155.631-25.02v-84.471a2.241 2.241 0 0 0-2.241-2.24h-153.39a5.58 5.58 0 0 0-5.582 5.582v81.129zm-175.213-28.794v-52.335c0-10.822 8.761-19.582 19.582-19.582h67.434c17.274-24.105 28.439-51.282 28.439-78.81V112.861c-34.222-7.134-66.498-21.895-95.623-41.361 0 0-77.622 0-77.621-.001-29.146 19.467-61.424 34.228-95.645 41.362v117.761c0 27.907 11.485 55.462 29.174 79.818 26.51 36.502 67 65.87 105.271 78.437 6.293-2.067 12.647-4.592 18.989-7.528zm78.719 67.814c-.476 6.678-1.81 13.366-3.58 18.977h38.837c-1.847-5.612-3.281-12.301-3.826-18.977zM171.963 219.325l70.619-69.892c7.68-7.601 20.086-7.536 27.687.143 7.6 7.68 7.536 20.086-.144 27.687l-82.902 82.048c-7.017 6.945-18.107 7.578-25.869 1.477l-59.192-46.524c-8.495-6.677-9.972-18.995-3.294-27.49 6.677-8.495 18.994-9.971 27.49-3.294zm3.912 14.932c-.367.524-.626.825-.626.825a6.981 6.981 0 0 1-2.754.565s-1.876.366-4.222-1.416l-.119-.092-1.397-1.099-49.051-38.553a5.579 5.579 0 0 0-7.831.939 5.579 5.579 0 0 0 .938 7.831l59.192 46.524a5.577 5.577 0 0 0 7.37-.421l82.902-82.048a5.58 5.58 0 0 0 .041-7.887 5.58 5.58 0 0 0-7.888-.041l-75.011 74.238zm306.604 243.57h-62.434c-5.205 0-10.204-2.119-13.884-5.922-3.599-3.719-5.637-8.757-5.637-14.017V329.37c0-5.259 2.038-10.297 5.637-14.017 3.68-3.803 8.679-5.921 13.884-5.921h62.434c5.205 0 10.204 2.118 13.884 5.921 3.599 3.72 5.637 8.758 5.637 14.017v128.518c0 5.26-2.038 10.298-5.637 14.017-3.68 3.803-8.679 5.922-13.884 5.922zm0-14c1.437 0 2.807-.608 3.823-1.658 1.098-1.133 1.698-2.677 1.698-4.281V329.37c0-1.603-.6-3.147-1.698-4.281-1.016-1.05-2.386-1.657-3.823-1.657h-62.434c-1.437 0-2.807.607-3.823 1.657-1.098 1.134-1.698 2.678-1.698 4.281v128.518c0 1.604.6 3.148 1.698 4.281 1.016 1.05 2.386 1.658 3.823 1.658zm-38.63-8.146c-3.863 0-7-3.137-7-7 0-3.864 3.137-7 7-7h14.826c3.863 0 7 3.136 7 7 0 3.863-3.137 7-7 7z" fill="#0055fa" opacity="1" data-original="#000000" class=""></path></g></svg>