<svg xmlns="http://www.w3.org/2000/svg" version="1.1" xmlns:xlink="http://www.w3.org/1999/xlink" width="512" height="512" x="0" y="0" viewBox="0 0 24 24" style="enable-background:new 0 0 512 512" xml:space="preserve" class=""><g><g data-name="Layer 2"><path fill="#989fa7" d="M12 22.75A10.75 10.75 0 1 1 22.75 12 10.762 10.762 0 0 1 12 22.75zm0-20A9.25 9.25 0 1 0 21.25 12 9.26 9.26 0 0 0 12 2.75z" opacity="1" data-original="#232323" class=""></path><g fill="#7fbde7"><path d="M13.5 17.75h-3a.75.75 0 0 1 0-1.5h3a.75.75 0 0 1 0 1.5z" fill="#0055fa" opacity="1" data-original="#7fbde7" class=""></path><path d="M12 17.75a.75.75 0 0 1-.75-.75v-6.292a.751.751 0 0 1 .25-1.458h.5a.75.75 0 0 1 .75.75v7a.75.75 0 0 1-.75.75z" fill="#0055fa" opacity="1" data-original="#7fbde7" class=""></path><circle cx="12" cy="7" r="1" fill="#0055fa" opacity="1" data-original="#7fbde7" class=""></circle></g></g></g></svg>