<svg xmlns="http://www.w3.org/2000/svg" version="1.1" xmlns:xlink="http://www.w3.org/1999/xlink" width="512" height="512" x="0" y="0" viewBox="0 0 512 512" style="enable-background:new 0 0 512 512" xml:space="preserve" class=""><g><g fill-rule="evenodd"><path fill="#0074ff" d="m460.3 234.462-22.208 5.6-18.215 4.605a166.865 166.865 0 0 1-20.809 50.3l9.618 16.088 11.22 18.769-1.166 3.118q-5.376 6.908-11.395 13.406h-11.454l1.748-28.969h-29.726a116.88 116.88 0 0 0-18.827-24.306 127.312 127.312 0 1 0-186.172 0 116.812 116.812 0 0 0-18.827 24.306h-29.726l1.748 28.969h-11.453q-6.033-6.514-11.4-13.406l-1.156-3.12 11.22-18.769 9.617-16.088a166.888 166.888 0 0 1-20.808-50.3l-18.215-4.605-22.208-5.6a205.932 205.932 0 0 1 0-56.48l22.208-5.6 18.215-4.575a166.6 166.6 0 0 1 20.808-50.3l-9.617-16.116-11.75-19.67a206.745 206.745 0 0 1 39.93-39.927l19.672 11.745 16.088 9.618a166.875 166.875 0 0 1 50.3-20.809l4.6-18.215 5.595-22.207a208.246 208.246 0 0 1 56.481 0l5.6 22.207 4.6 18.215a167.469 167.469 0 0 1 50.273 20.809l16.117-9.618L380.5 41.792a208.927 208.927 0 0 1 39.93 39.927l-11.745 19.673-9.618 16.116a166.576 166.576 0 0 1 20.809 50.3l18.215 4.575 22.208 5.6a207.119 207.119 0 0 1 .001 56.479z" opacity="1" data-original="#fd5c70" class=""></path><path fill="#262626" d="M428.707 375.14h-34.536l.874-14.4h28.707l12.095-32.466a7.144 7.144 0 0 1 6.7-4.663v-.029h36.022a16.292 16.292 0 1 1 0 14.4h-31.035l-11.891 31.854a7.169 7.169 0 0 1-6.936 5.304zM32.758 389.129a16.277 16.277 0 1 0 14.6 23.49H120.1l-.874-14.4H47.359a16.254 16.254 0 0 0-14.601-9.09zm446.484 32.554a16.277 16.277 0 1 0-14.6-23.461h-71.87l-.874 14.4h72.743a16.278 16.278 0 0 0 14.601 9.061zm13.931 42.084a16.252 16.252 0 0 0-14.6 9.093h-31.039l-11.891-31.884a7.177 7.177 0 0 0-6.936-5.275H390.5l-.874 14.4h34.127l12.095 32.438a7.171 7.171 0 0 0 6.7 4.692h36.022a16.281 16.281 0 1 0 14.6-23.461zM18.827 347.075a16.254 16.254 0 0 0 14.6-9.093h31.039l11.891 31.854a7.169 7.169 0 0 0 6.936 5.3h34.536l-.875-14.4H88.248l-12.095-32.459a7.145 7.145 0 0 0-6.7-4.663v-.029H33.428a16.286 16.286 0 1 0-14.6 23.49zM121.5 435.7H83.293a7.177 7.177 0 0 0-6.936 5.275L64.466 472.86H33.428a16.277 16.277 0 1 0 0 14.368H69.45a7.172 7.172 0 0 0 6.7-4.692l12.1-32.438h34.127zm159.418-156.152h-49.836c-30.048 0-54.033 15.068-69.975 37.829h189.786c-15.942-22.761-39.957-37.829-69.975-37.829zm37.013-94.28a61.931 61.931 0 1 0-123.862 0c0 112.787 123.862 112.787 123.862 0zM137.646 464.641l-8.014-132.867h252.736l-8.044 132.867zm96.583-66.419A21.771 21.771 0 1 0 256 376.452a21.811 21.811 0 0 0-21.771 21.77zM121.646 512h268.707v-32.962H121.646z" opacity="1" data-original="#27276d" class=""></path></g></g></svg>