<svg xmlns="http://www.w3.org/2000/svg" version="1.1" xmlns:xlink="http://www.w3.org/1999/xlink" width="512" height="512" x="0" y="0" viewBox="0 0 48 48" style="enable-background:new 0 0 512 512" xml:space="preserve" fill-rule="evenodd" class=""><g><g transform="translate(-48 -192)"><path d="M60 232.93h.815a2.5 2.5 0 0 0 2.432-1.921l.405-1.702a.501.501 0 0 1 .967-.022l.586 2.029a2.498 2.498 0 0 0 4.402.807l.155-.207a.5.5 0 0 1 .754-.054l.338.338a2.496 2.496 0 0 0 1.767.732H74a1 1 0 0 0 0-2h-1.379a.503.503 0 0 1-.353-.146l-.338-.338a2.499 2.499 0 0 0-3.768.268l-.155.207a.5.5 0 0 1-.881-.161l-.585-2.03a2.5 2.5 0 0 0-4.834.114l-.405 1.702a.5.5 0 0 1-.487.384H60a1 1 0 0 0 0 2zM86 221c-4.967 0-9 4.033-9 9s4.033 9 9 9 9-4.033 9-9-4.033-9-9-9zm0 2c3.863 0 7 3.137 7 7s-3.137 7-7 7-7-3.137-7-7 3.137-7 7-7z" fill="#ffffff" opacity="1" data-original="#000000" class=""></path><path d="m82.078 230.692 2.121 2.121a1 1 0 0 0 1.414 0l4.242-4.242a1 1 0 0 0-1.414-1.414l-3.535 3.535-1.414-1.414a1 1 0 0 0-1.414 1.414zM87 218v-18.5a2.5 2.5 0 0 0-2.5-2.5h-29a2.5 2.5 0 0 0-2.5 2.5v37a2.5 2.5 0 0 0 2.5 2.5H76a1 1 0 0 0 0-2H55.5a.504.504 0 0 1-.354-.146.504.504 0 0 1-.146-.354v-37c0-.133.053-.26.146-.354A.504.504 0 0 1 55.5 199h29c.133 0 .26.053.354.146a.504.504 0 0 1 .146.354V218a1 1 0 0 0 2 0z" fill="#ffffff" opacity="1" data-original="#000000" class=""></path><path d="M82 193H51.5a2.5 2.5 0 0 0-2.5 2.5V234a1 1 0 0 0 2 0v-38.5c0-.133.053-.26.146-.354A.504.504 0 0 1 51.5 195H82a1 1 0 0 0 0-2z" fill="#ffffff" opacity="1" data-original="#000000" class=""></path><path d="M70 205h10a1 1 0 0 0 0-2H70a1 1 0 0 0 0 2zM60 209h20a1 1 0 0 0 0-2H60a1 1 0 0 0 0 2zM60 213h12a1 1 0 0 0 0-2H60a1 1 0 0 0 0 2zM76 213h4a1 1 0 0 0 0-2h-4a1 1 0 0 0 0 2zM64 217h16a1 1 0 0 0 0-2H64a1 1 0 0 0 0 2z" fill="#ffffff" opacity="1" data-original="#000000" class=""></path><circle cx="60" cy="216" r="1" fill="#ffffff" opacity="1" data-original="#000000" class=""></circle></g></g></svg>