<svg fill="none" height="512" viewBox="0 0 60 60" width="512" xmlns="http://www.w3.org/2000/svg"><g fill="rgb(0,0,0)"><path d="m37.748 51c-.888 3.45-4.02 6-7.748 6s-6.86-2.55-7.748-6z"/><path d="m51.671 43.662c-1.767-.773-4.671-3.313-4.671-11.662v-9c0-7.81-5.599-14.304-13-15.709l-1-.19c0-.547 0-.843 0-1.101 0-1.657-1.343-3-3-3s-3 1.343-3 3v1.101l-1 .19c-7.401 1.405-13 7.899-13 15.709v9c0 8.349-2.904 10.889-4.671 11.662-.817.357-1.329 1.174-1.329 2.065 0 1.255 1.018 2.273 2.273 2.273h41.453c1.256 0 2.274-1.018 2.274-2.273 0-.891-.512-1.708-1.329-2.065z"/></g></svg>