<svg xmlns="http://www.w3.org/2000/svg" version="1.1" xmlns:xlink="http://www.w3.org/1999/xlink" width="512" height="512" x="0" y="0" viewBox="0 0 64 64" style="enable-background:new 0 0 512 512" xml:space="preserve" class=""><g><path d="M55.02 8.84h-1.56V5.7c0-1.1-.89-1.99-1.99-1.99h-3.13c-1.1 0-1.99.89-1.99 1.99v3.14h-28.7V5.7c0-1.1-.89-1.99-1.99-1.99h-3.13c-1.1 0-1.99.89-1.99 1.99v3.14H8.98C5.13 8.84 2 11.97 2 15.82v37.49c0 3.85 3.13 6.98 6.98 6.98h46.04c3.85 0 6.98-3.13 6.98-6.98V15.82c0-3.85-3.13-6.98-6.98-6.98zM60 53.31a4.98 4.98 0 0 1-4.98 4.98H8.98A4.98 4.98 0 0 1 4 53.31V15.82a4.98 4.98 0 0 1 4.98-4.98h1.56v3.38c0 1.1.89 1.99 1.99 1.99h3.13c1.1 0 1.99-.89 1.99-1.99v-3.38h28.7v3.38c0 1.1.89 1.99 1.99 1.99h3.13c1.1 0 1.99-.89 1.99-1.99v-3.38h1.56A4.98 4.98 0 0 1 60 15.82z" fill="#0055fa" opacity="1" data-original="#000000"></path></g></svg>