<svg xmlns="http://www.w3.org/2000/svg" version="1.1" xmlns:xlink="http://www.w3.org/1999/xlink" width="512" height="512" x="0" y="0" viewBox="0 0 254000 254000" style="enable-background:new 0 0 512 512" xml:space="preserve" fill-rule="evenodd" class=""><g><circle cx="127000" cy="127000" r="127001" fill="#1b65de" opacity="1" data-original="#ff4141" class=""></circle><path fill="#ffffff" fill-rule="nonzero" d="M127000 55272c18890 0 36040 6563 48492 17171 12628 10757 20441 25668 20441 42177s-7813 31420-20441 42177c-12452 10608-29602 17171-48492 17171-2182 0-4374-92-6559-271-1585-129-3188-313-4803-546l-35008 24783c-1899 1342-4529 890-5871-1009-823-1164-971-2603-525-3852l-4-1c759-2114 1336-3633 1910-5148 3913-10319 7723-20367 3008-30590-6469-5373-11724-11832-15368-19036-3676-7270-5713-15277-5713-23678 0-16509 7813-31420 20441-42177 12452-10608 29602-17171 48492-17171zm43002 23587c-10964-9340-26167-15119-43002-15119s-32038 5779-43002 15119c-10788 9189-17463 21838-17463 35761 0 7065 1706 13785 4785 19874 3228 6383 7967 12107 13836 16844 472 370 873 848 1161 1419 5503 10934 3800 20730 532 30452l25102-17770c902-731 2100-1088 3335-887 1851 306 3792 545 5817 711 1911 156 3880 237 5897 237 16835 0 32038-5779 43002-15119 10788-9189 17463-21838 17463-35761s-6675-26572-17463-35761z" opacity="1" data-original="#ffffff"></path></g></svg>