<svg xmlns="http://www.w3.org/2000/svg" version="1.1" xmlns:xlink="http://www.w3.org/1999/xlink" width="512" height="512" x="0" y="0" viewBox="0 0 512 512" style="enable-background:new 0 0 512 512" xml:space="preserve" class=""><g><path d="M472.012 406.582c-4.143-3.187-22.786-15.669-45.573-29.905V46.62c0-25.123-20.449-45.573-45.573-45.573H72.798c-25.124 0-45.573 20.45-45.573 45.573v418.814c0 25.123 20.449 45.52 45.573 45.52h308.069c25.123 0 45.573-20.396 45.573-45.52v-11.26c2.39 2.125 4.25 3.665 5.259 4.462 14.341 11.153 35.003 8.444 46.157-5.95 11.153-14.394 8.551-34.949-5.844-46.104zm-120.731-51.256c-39.305 50.778-112.817 60.445-163.967 20.875-51.044-39.518-60.339-112.87-20.821-163.968 39.518-50.991 112.87-60.391 163.914-20.821 51.309 39.73 60.233 113.136 20.874 163.914zm64.535 110.108c0 19.281-15.669 34.896-34.95 34.896H72.798c-19.281 0-34.95-15.616-34.95-34.896V46.62c0-19.281 15.669-34.95 34.95-34.95h308.069c19.281 0 34.95 15.669 34.95 34.95v323.472c-19.281-11.738-33.834-19.971-44.723-25.813 29.107-53.647 16.094-122.325-34.206-161.259-55.665-43.129-135.656-32.931-178.786 22.734-43.077 55.665-32.985 135.71 22.733 178.839 49.875 38.614 120.147 34.631 165.401-8.02 19.918 21.618 48.653 49.237 69.581 68.2v20.661z" fill="#ffffff" opacity="1" data-original="#000000" class=""></path><path d="M98.432 78.318h255.809a5.31 5.31 0 0 0 5.312-5.312 5.311 5.311 0 0 0-5.312-5.312H98.432c-2.936 0-5.312 2.378-5.312 5.312s2.376 5.312 5.312 5.312zM98.432 137.756h255.809a5.31 5.31 0 0 0 5.312-5.312 5.311 5.311 0 0 0-5.312-5.312H98.432c-2.936 0-5.312 2.378-5.312 5.312s2.376 5.312 5.312 5.312zM354.241 424.327H98.432a5.31 5.31 0 0 0-5.312 5.312 5.311 5.311 0 0 0 5.312 5.312h255.809a5.31 5.31 0 0 0 5.312-5.312 5.311 5.311 0 0 0-5.312-5.312zM296.001 239.386l-60.123 68.946-18.928-17.524c-2.158-1.994-5.524-1.867-7.506.29a5.308 5.308 0 0 0 .285 7.506l22.942 21.241a5.317 5.317 0 0 0 7.615-.407l63.723-73.07a5.315 5.315 0 0 0-.514-7.493c-2.203-1.924-5.554-1.699-7.494.511z" fill="#ffffff" opacity="1" data-original="#000000" class=""></path></g></svg>