<svg xmlns="http://www.w3.org/2000/svg" version="1.1" xmlns:xlink="http://www.w3.org/1999/xlink" width="512" height="512" x="0" y="0" viewBox="0 0 70 70" style="enable-background:new 0 0 512 512" xml:space="preserve" class=""><g><circle cx="35" cy="35" r="35" fill="#dfedfc" opacity="1" data-original="#7ec242"></circle><g fill="#fff"><path d="M52.043 23.723c-.124.017-.247.037-.383.037-.089 0-.167-.02-.251-.025v30.859c0 1.102-.896 2-2 2H20.576c-1.103 0-2-.898-2-2V15.426c0-1.104.897-2 2-2h22.519c-.652-.454-.99-1.219-1.014-2H20.576c-2.205 0-4 1.794-4 4v39.168c0 2.205 1.795 4 4 4h28.833c2.207 0 4-1.795 4-4V24.502a2.202 2.202 0 0 1-1.366-.779z" fill="#2642c5" opacity="1" data-original="#ffffff" class=""></path><path d="M52.407 25.53H42.211a1.01 1.01 0 0 1-1.019-1V12.406c0-.422.271-.798.674-.939a1.026 1.026 0 0 1 1.13.305L53.067 23.77a.985.985 0 0 1 .356.762c.003.551-.451.998-1.016.998zm-9.178-2h7l-7-8.34zM36.001 45.25a1 1 0 1 1-2 0V32.438a1 1 0 0 1 2 0z" fill="#2642c5" opacity="1" data-original="#ffffff" class=""></path><path d="M41.407 37.844a1 1 0 1 1 0 2H28.595a1 1 0 1 1 0-2z" fill="#2642c5" opacity="1" data-original="#ffffff" class=""></path></g></g></svg>