<svg xmlns="http://www.w3.org/2000/svg" version="1.1" xmlns:xlink="http://www.w3.org/1999/xlink" width="512" height="512" x="0" y="0" viewBox="0 0 512 512" style="enable-background:new 0 0 512 512" xml:space="preserve" fill-rule="evenodd" class=""><g><path d="M429 328.18H232.61c-3.31 0-6-2.68-6-5.99V125.8c0-3.31 2.69-6 6-6s6 2.69 6 6v190.39H429c3.31 0 6 2.68 6 6 0 3.31-2.69 5.99-6 5.99z" fill="#ffffff" opacity="1" data-original="#000000" class=""></path><path d="M298.63 328.18h-29.08c-3.31 0-5.99-2.68-5.99-5.99v-72.46c0-3.31 2.68-6 5.99-6h29.08c3.31 0 6 2.69 6 6v72.46c0 3.31-2.69 5.99-6 5.99zm-23.08-11.99h17.08v-60.46h-17.08zM345.34 328.18h-29.07c-3.31 0-6-2.68-6-5.99V210.17c0-3.31 2.69-6 6-6h29.07c3.32 0 6 2.69 6 6v112.02a5.99 5.99 0 0 1-6 5.99zm-23.07-11.99h17.08V216.17h-17.08zM392.06 328.18h-29.08c-3.31 0-6-2.68-6-5.99V173.94c0-3.31 2.69-5.99 6-5.99h29.08c3.31 0 6 2.68 6 5.99v148.25c0 3.31-2.69 5.99-6 5.99zm-23.08-11.99h17.08V179.94h-17.08zM124.22 338.54c-26.04 0-47.22-21.18-47.22-47.21 0-26.04 21.18-47.22 47.22-47.22 1.55 0 3.13.08 4.69.23 3.28.33 5.69 3.24 5.38 6.53l-3.43 36.82 34.01-3.17c1.65-.16 3.3.39 4.54 1.5a5.99 5.99 0 0 1 2.01 4.35c.01.31.01.64.01.96 0 26.03-21.18 47.21-47.21 47.21zm-2.47-82.35C103.48 257.46 89 272.74 89 291.33c0 19.42 15.8 35.22 35.22 35.22 17.44 0 31.97-12.76 34.74-29.43l-34.19 3.19c-1.77.16-3.53-.47-4.79-1.73a5.955 5.955 0 0 1-1.73-4.8zM124.22 219.94c-26.04 0-47.22-21.18-47.22-47.22 0-26.03 21.18-47.21 47.22-47.21 1.56 0 3.14.08 4.7.23 3.28.33 5.68 3.24 5.37 6.53l-3.43 36.82 34.01-3.17c1.65-.16 3.3.38 4.54 1.49a6.008 6.008 0 0 1 2.01 4.35c.01.32.01.64.01.96 0 26.04-21.18 47.22-47.21 47.22zm-2.47-82.35C103.48 138.86 89 154.13 89 172.72c0 19.42 15.8 35.22 35.22 35.22 17.44 0 31.97-12.75 34.74-29.42l-34.19 3.18c-1.77.17-3.53-.46-4.79-1.73a5.946 5.946 0 0 1-1.73-4.79zM256.96 211.05c-2.07 0-4.09-1.08-5.2-3a5.995 5.995 0 0 1 2.19-8.19l117.77-68a6.01 6.01 0 0 1 8.2 2.2c1.65 2.87.67 6.54-2.2 8.19l-117.77 68c-.94.54-1.97.8-2.99.8z" fill="#ffffff" opacity="1" data-original="#000000" class=""></path><path d="M366.21 163.03a5.997 5.997 0 0 1-5.51-8.35l5.47-12.84-13.98-2.09a5.998 5.998 0 0 1-5.04-6.82 6.003 6.003 0 0 1 6.82-5.04l21.64 3.24c1.84.27 3.44 1.38 4.35 3 .9 1.62 1.01 3.57.28 5.28l-8.51 19.97a5.99 5.99 0 0 1-5.52 3.65z" fill="#ffffff" opacity="1" data-original="#000000" class=""></path><path d="M486.66 382.14H25.33c-3.31 0-5.99-2.69-5.99-6V87c0-5.95 4.84-10.8 10.8-10.8h451.72c5.96 0 10.8 4.85 10.8 10.81v289.13c0 3.31-2.68 6-6 6zm-455.33-12h449.34V88.2H31.33z" fill="#ffffff" opacity="1" data-original="#000000" class=""></path><path d="M479.06 435.8H32.94c-18.1 0-32.83-14.73-32.83-32.83v-26.83c0-3.31 2.69-6 6-6h499.78c3.31 0 5.99 2.69 5.99 6v26.83c0 18.1-14.72 32.83-32.82 32.83zM12.11 382.14v20.83c0 11.49 9.35 20.83 20.83 20.83h446.12c11.48 0 20.83-9.34 20.83-20.83v-20.83z" fill="#ffffff" opacity="1" data-original="#000000" class=""></path><path d="M302.45 407.68h-92.9c-3.31 0-6-2.68-6-5.99v-25.55c0-3.31 2.69-6 6-6h92.9c3.31 0 6 2.69 6 6v25.55c0 3.31-2.69 5.99-6 5.99zm-86.91-11.99h80.92v-13.55h-80.92zM444.98 408.97h-69.97c-3.31 0-6-2.69-6-6s2.69-6 6-6h69.97c3.31 0 5.99 2.69 5.99 6s-2.68 6-5.99 6zM136.99 408.97H67.02c-3.31 0-5.99-2.69-5.99-6s2.68-6 5.99-6h69.97c3.31 0 6 2.69 6 6s-2.69 6-6 6z" fill="#ffffff" opacity="1" data-original="#000000" class=""></path></g></svg>