<svg data-v-0437d525="" xmlns="http://www.w3.org/2000/svg" version="1.1" xmlns:xlink="http://www.w3.org/1999/xlink" width="512" height="512" x="0" y="0" viewBox="0 0 512 512" xml:space="preserve" class=""><circle data-v-0437d525="" r="256" cx="256" cy="256" fill="#ffe0e3" shape="circle" transform="matrix(1,0,0,1,0,0)"></circle><g data-v-0437d525="" transform="matrix(0.4999999999999998,0,0,0.4999999999999998,128.00000000000006,128.00000000000006)"><path data-v-0437d525="" d="M56 180h400M216 100h80M121.352 100l16.51-52.097C142.989 31.725 158.125 20 176 20h160c17.875 0 33.011 11.725 38.138 27.903L390.648 100M416 180l-40.396 277.651C372.858 477.067 356.173 492 336 492H176c-20.173 0-36.858-14.933-39.604-34.349L96 180M216 260v152M296 260v152" fill="none" stroke="#dc3545" stroke-width="40" stroke-linecap="round" stroke-linejoin="round" stroke-miterlimit="10" data-original="#000000" opacity="1" class="" style="stroke-width: 40; stroke-linecap: round; stroke-linejoin: round; stroke-miterlimit: 10;"></path></g></svg>