<svg xmlns="http://www.w3.org/2000/svg" version="1.1" xmlns:xlink="http://www.w3.org/1999/xlink" width="512" height="512" x="0" y="0" viewBox="0 0 512 512" style="enable-background:new 0 0 512 512" xml:space="preserve" class=""><g><path d="M282.483 366.345H176.552l-8.828 79.448H291.31z" style="" fill="#0d6efd" data-original="#5b5d6e" opacity="1" class=""></path><path d="m176.552 366.345-2.943 26.483h111.817l-2.943-26.483z" style="" fill="#0d6efd" data-original="#464655" class="" opacity="1"></path><path d="M441.379 375.172H17.655C7.904 375.172 0 367.268 0 357.517V75.034c0-9.751 7.904-17.655 17.655-17.655h423.724c9.751 0 17.655 7.904 17.655 17.655v282.483c0 9.751-7.904 17.655-17.655 17.655z" style="" fill="#0d6efd" data-original="#707487" class="" opacity="1"></path><path d="M432.552 75.034H26.483a8.829 8.829 0 0 0-8.828 8.828v229.517a8.829 8.829 0 0 0 8.828 8.828h406.069a8.829 8.829 0 0 0 8.828-8.828V83.862a8.83 8.83 0 0 0-8.828-8.828z" style="" fill="#ffffff" data-original="#ffffff" class=""></path><path d="M308.966 454.621H150.069a8.823 8.823 0 0 1-8.828-8.828 8.823 8.823 0 0 1 8.828-8.828h158.897a8.823 8.823 0 0 1 8.828 8.828 8.824 8.824 0 0 1-8.828 8.828z" style="" fill="#0d6efd" data-original="#707487" class="" opacity="1"></path><path d="M379.586 454.621H238.345c-9.751 0-17.655-7.904-17.655-17.655V233.931c0-9.751 7.904-17.655 17.655-17.655h141.241c9.751 0 17.655 7.904 17.655 17.655v203.034c0 9.752-7.904 17.656-17.655 17.656z" style="" fill="#000000" data-original="#d5dced" class="" opacity="1"></path><path d="M503.172 286.897h-70.621a8.829 8.829 0 0 0-8.828 8.828v141.241a8.829 8.829 0 0 0 8.828 8.828h70.621a8.829 8.829 0 0 0 8.828-8.828V295.724a8.828 8.828 0 0 0-8.828-8.827z" style="" fill="#0d6efd" data-original="#5b5d6e" opacity="1" class=""></path><path d="M238.345 242.759h141.241v176.552H238.345z" style="" fill="#ffffff" data-original="#ffffff" class=""></path><path d="M317.793 428.138h-17.655a8.829 8.829 0 0 0 0 17.656h17.655a8.828 8.828 0 0 0 0-17.656z" style="" fill="#c7cfe2" data-original="#c7cfe2" class=""></path><path d="M467.862 423.724a8.829 8.829 0 0 0 0 17.656 8.829 8.829 0 0 0 0-17.656z" style="" fill="#0d6efd" data-original="#464655" class="" opacity="1"></path><path d="M432.552 304.552h70.621v114.759h-70.621z" style="" fill="#ffffff" data-original="#ffffff" class=""></path></g></svg>