<svg xmlns="http://www.w3.org/2000/svg" version="1.1" xmlns:xlink="http://www.w3.org/1999/xlink" width="512" height="512" x="0" y="0" viewBox="0 0 24 24" style="enable-background:new 0 0 512 512" xml:space="preserve" class=""><g><path d="M20 21.75h-4A2.753 2.753 0 0 1 13.25 19v-8A2.753 2.753 0 0 1 16 8.25h4A2.753 2.753 0 0 1 22.75 11v8A2.753 2.753 0 0 1 20 21.75zm-4-12c-.69 0-1.25.56-1.25 1.25v8c0 .69.56 1.25 1.25 1.25h4c.69 0 1.25-.56 1.25-1.25v-8c0-.69-.56-1.25-1.25-1.25zM4.75 5c0-.69.56-1.25 1.25-1.25h12c.69 0 1.25.56 1.25 1.25v2H20c.257 0 .506.03.75.076V5A2.753 2.753 0 0 0 18 2.25H6A2.753 2.753 0 0 0 3.25 5v7h1.5zM12 16.25H5a2.254 2.254 0 0 1-2.122-1.5H12v-1.5H2a.75.75 0 0 0-.75.75A3.754 3.754 0 0 0 5 17.75h7z" fill="#3b6fb0" opacity="1" data-original="#000000" class=""></path></g></svg>