<svg viewBox="0 0 512 512" xmlns="http://www.w3.org/2000/svg" xmlns:xlink="http://www.w3.org/1999/xlink"><linearGradient id="linear-gradient" gradientUnits="userSpaceOnUse" x1="380.93" x2="122.09" y1="390.32" y2="131.48"><stop offset="0" stop-color="#13b601"/><stop offset=".38" stop-color="#13b601"/><stop offset="1" stop-color="#cbf4b4"/></linearGradient><linearGradient id="linear-gradient-2" gradientUnits="userSpaceOnUse" x1="388.05" x2="269.53" y1="218.3" y2="99.78"><stop offset="0" stop-color="#34344f"/><stop offset=".26" stop-color="#3b3b57"/><stop offset=".66" stop-color="#50506d"/><stop offset="1" stop-color="#666684"/></linearGradient><linearGradient id="linear-gradient-3" gradientUnits="userSpaceOnUse" x1="411.76" x2="302.76" y1="403.67" y2="294.67"><stop offset="0" stop-color="#1eb4eb"/><stop offset=".54" stop-color="#1eb4eb"/><stop offset="1" stop-color="#92f4fe"/></linearGradient><linearGradient id="linear-gradient-4" gradientUnits="userSpaceOnUse" x1="394.24" x2="320.28" y1="389.71" y2="315.75"><stop offset="0" stop-color="#bce4ed"/><stop offset=".57" stop-color="#fff"/><stop offset="1" stop-color="#fff"/></linearGradient><g id="FILES_AND_FOLDER_grad_fill" data-name="FILES AND FOLDER grad fill"><path d="m496.53 129.86c-13.44-49.48-64.89-100.94-114.37-114.37-30.34-7.57-70.98-15.36-126.16-15.49-55.16.14-95.8 7.92-126.14 15.49-49.47 13.44-100.93 64.89-114.37 114.37-7.56 30.33-15.35 70.98-15.49 126.14.14 55.17 7.93 95.82 15.49 126.15 13.44 49.48 64.9 100.93 114.37 114.37 30.34 7.57 71 15.35 126.15 15.49 55.16-.14 95.81-7.92 126.15-15.49 49.48-13.44 100.93-64.89 114.37-114.37 7.56-30.33 15.35-71 15.48-126.15-.13-55.16-7.92-95.81-15.48-126.14z" fill="#e5f4d9"/><path d="m316.54 97.54a58.66 58.66 0 0 0 -33.22-11.54 803.67 803.67 0 0 0 -104.67 4.3c-23.21 2.7-45.47 25-48.17 48.17-6.08 57-6.08 162.72 0 219.68 2.7 23.22 25 45.48 48.17 48.17a801.41 801.41 0 0 0 170.88 0c23.22-2.69 45.48-24.95 48.17-48.17 4.15-38.79 5.47-100.23 4-153.46v-.22a54.37 54.37 0 0 0 -10.61-31.86 358.29 358.29 0 0 0 -74.55-75.07z" fill="url(#linear-gradient)"/><path d="m401.67 204.69c-4.43.11-8.86.19-13.25.19a529.77 529.77 0 0 1 -56-3h-.16c-11.08-1.29-22-6.78-30.67-15.48s-14.19-19.58-15.48-30.67a1 1 0 0 0 0-.16 529.77 529.77 0 0 1 -2.8-69.57 58.66 58.66 0 0 1 33.22 11.55 358 358 0 0 1 74.66 75.27 53.78 53.78 0 0 1 10.46 31.69z" fill="url(#linear-gradient-2)"/><g fill="#fff"><path d="m296.47 312h-104.55a9.31 9.31 0 1 0 0 18.62h104.55a9.31 9.31 0 0 0 0-18.62z"/><path d="m191.92 283.88h144.34a9.31 9.31 0 0 0 0-18.62h-144.34a9.31 9.31 0 1 0 0 18.62z"/><path d="m191.92 237.14h97.79a9.31 9.31 0 1 0 0-18.62h-97.79a9.31 9.31 0 1 0 0 18.62z"/></g><path d="m357.26 272.09a77.08 77.08 0 1 0 77.07 77.08 77.08 77.08 0 0 0 -77.07-77.08z" fill="url(#linear-gradient-3)"/><path d="m364.06 357.52a6.8 6.8 0 0 1 -3.61 6v6.08a3.11 3.11 0 1 1 -6.21 0v-6a6.8 6.8 0 1 1 9.82-6.09zm38.67 4.39a77.78 77.78 0 0 1 -1.57 15.89v.1c-1.92 8.65-9.7 16.17-18.51 17.88-4.22.85-18.35 1.6-24.72 1.6h-.65c-6 .06-21-.72-25.41-1.61-8.76-1.7-16.55-9.22-18.46-17.87a.36.36 0 0 1 0-.1 80.79 80.79 0 0 1 0-31.8.43.43 0 0 1 0-.11c1.58-7.13 7.14-13.48 14-16.45v-2.59c0-.06 0-.12 0-.17 0-.63 0-1.27 0-1.91a72.06 72.06 0 0 1 .91-11.67.36.36 0 0 1 0-.11 21.7 21.7 0 0 1 17.21-17.21h.07a71.79 71.79 0 0 1 11.68-.91 70.83 70.83 0 0 1 11.66.91h.06a21.71 21.71 0 0 1 17.24 17.22s0 .06 0 .08a70.39 70.39 0 0 1 .91 11.67v2.51c0-.13 0-.25 0-.38v2.56c6.82 3 12.4 9.33 14 16.46v.1a77.92 77.92 0 0 1 1.58 15.91zm-59.41-37.12v1.68.46c5.24-.31 10.8-.51 13.92-.49s8.69.17 13.94.5v-2.17a54.66 54.66 0 0 0 -.69-9 5.27 5.27 0 0 0 -1.53-2.69 5.46 5.46 0 0 0 -2.73-1.54 59.6 59.6 0 0 0 -18 0 5.8 5.8 0 0 0 -4.22 4.26 55 55 0 0 0 -.69 8.99zm43.45 37.14a61 61 0 0 0 -1.22-12.6 8.68 8.68 0 0 0 -5.95-5.62c-2.63-.52-16.11-1.38-22.25-1.31a.54.54 0 0 1 -.18 0c-6.12-.06-19.61.79-22.19 1.3a8.69 8.69 0 0 0 -6 5.63 65.1 65.1 0 0 0 0 25.19 8.66 8.66 0 0 0 5.95 5.62c2.63.53 16.13 1.38 22.24 1.31h.18c6.12.07 19.62-.78 22.2-1.3a8.67 8.67 0 0 0 6-5.63 60.91 60.91 0 0 0 1.22-12.59z" fill="url(#linear-gradient-4)"/></g></svg>