<svg xmlns="http://www.w3.org/2000/svg" version="1.1" xmlns:xlink="http://www.w3.org/1999/xlink" width="512" height="512" x="0" y="0" viewBox="0 0 24 24" style="enable-background:new 0 0 512 512" xml:space="preserve" class=""><g><path d="M17 15.63a4.375 4.375 0 0 0-3.309-4.241l-2.9-.718A2.371 2.371 0 0 1 11.37 6h1.26a2.372 2.372 0 0 1 2.356 2.112 1 1 0 0 0 1.988-.224 4.359 4.359 0 0 0-4.014-3.857V3a1 1 0 0 0-2 0v1.041a4.359 4.359 0 0 0-.651 8.57l2.9.718A2.372 2.372 0 0 1 12.63 18h-1.26a2.372 2.372 0 0 1-2.356-2.112 1 1 0 0 0-1.988.224 4.359 4.359 0 0 0 3.934 3.85V21a1 1 0 0 0 2 0v-1.032A4.344 4.344 0 0 0 17 15.63z" fill="#bdccc4" opacity="1" data-original="#000000" class=""></path></g></svg>