<svg xmlns="http://www.w3.org/2000/svg" version="1.1" xmlns:xlink="http://www.w3.org/1999/xlink" width="512" height="512" x="0" y="0" viewBox="0 0 24 24" style="enable-background:new 0 0 512 512" xml:space="preserve" class=""><g><path fill="#0055fa" d="M15.53 11.47a.75.75 0 0 0-1.061 0l-1.72 1.72V4a.75.75 0 0 0-1.5 0v9.189l-1.72-1.72a.75.75 0 1 0-1.061 1.061l3 3a.748.748 0 0 0 1.06 0l3-3a.75.75 0 0 0 0-1.061z" opacity="1" data-original="#549bff"></path><path fill="#262626" d="M18 20.75H6A2.752 2.752 0 0 1 3.25 18v-3a.75.75 0 0 1 1.5 0v3c0 .689.561 1.25 1.25 1.25h12c.689 0 1.25-.561 1.25-1.25v-3a.75.75 0 0 1 1.5 0v3A2.752 2.752 0 0 1 18 20.75z" opacity="1" data-original="#112d55" class=""></path></g></svg>