<svg xmlns="http://www.w3.org/2000/svg" version="1.1" xmlns:xlink="http://www.w3.org/1999/xlink" width="512" height="512" x="0" y="0" viewBox="0 0 32 32" style="enable-background:new 0 0 512 512" xml:space="preserve"><g><path d="M12.5 28h-2a.5.5 0 0 1 0-1h2a.5.5 0 0 1 0 1z" fill="#ffffff" opacity="1" data-original="#000000"></path><path d="M17.5 30h-15c-.827 0-1.5-.673-1.5-1.5v-26C1 1.673 1.673 1 2.5 1h18c.827 0 1.5.673 1.5 1.5v3a.5.5 0 0 1-1 0v-3a.5.5 0 0 0-.5-.5h-18a.5.5 0 0 0-.5.5v26a.5.5 0 0 0 .5.5h15a.5.5 0 0 1 0 1zM22.5 10h3a.5.5 0 0 0 0-1h-3a.5.5 0 0 0 0 1zM23.5 29h1a.5.5 0 0 0 0-1h-1a.5.5 0 0 0 0 1z" fill="#ffffff" opacity="1" data-original="#000000"></path><path d="M28.5 31h-9a2.503 2.503 0 0 1-2.5-2.5v-19C17 8.122 18.122 7 19.5 7h9C29.878 7 31 8.122 31 9.5v19c0 1.378-1.122 2.5-2.5 2.5zm-9-23c-.827 0-1.5.673-1.5 1.5v19c0 .827.673 1.5 1.5 1.5h9c.827 0 1.5-.673 1.5-1.5v-19c0-.827-.673-1.5-1.5-1.5z" fill="#ffffff" opacity="1" data-original="#000000"></path></g></svg>