<svg xmlns="http://www.w3.org/2000/svg" version="1.1" xmlns:xlink="http://www.w3.org/1999/xlink" width="512" height="512" x="0" y="0" viewBox="0 0 64 64" style="enable-background:new 0 0 512 512" xml:space="preserve" class=""><g><path d="M7.29 62h38.55c2.25 0 4.08-1.83 4.08-4.09v-9.65c6.35-1.51 10.87-7.2 10.87-13.82s-4.52-12.3-10.87-13.81V8.19c0-2.25-1.83-4.08-4.08-4.08H35.45A3.039 3.039 0 0 0 32.57 2h-12c-1.35 0-2.5.89-2.89 2.11H7.29c-2.25 0-4.08 1.83-4.08 4.08v49.72c0 2.26 1.83 4.09 4.08 4.09zm43.96-22.87c-.2.19-.45.29-.71.29-.25 0-.51-.1-.71-.29l-3.97-3.98a.99.99 0 0 1-.29-.71v-8.07c0-.55.44-1 1-1 .55 0 1 .45 1 1v7.66l3.68 3.68c.39.39.39 1.03 0 1.42zM5.21 8.19c0-1.15.93-2.08 2.08-2.08h10.24v2.31c0 .83.34 1.59.89 2.14.14.14.29.27.45.38.49.33 1.07.52 1.7.52h12c1.36 0 2.51-.9 2.89-2.14.1-.28.15-.59.15-.91v-2.3h10.23c1.15 0 2.08.93 2.08 2.08v12.09h-.07c-.12-.02-.24-.02-.36-.03-.13-.01-.25-.02-.38-.02-.18-.01-.36-.01-.54-.01-7.85 0-14.24 6.38-14.24 14.22s6.39 14.23 14.24 14.23c.46 0 .91-.02 1.35-.06v9.3c0 1.15-.93 2.09-2.08 2.09H7.29c-1.15 0-2.08-.94-2.08-2.09z" fill="#ffffff" opacity="1" data-original="#000000" class=""></path><path d="M12 18.602h2.71a1 1 0 1 0 0-2H12a1 1 0 1 0 0 2zM20.178 18.602H41.13a1 1 0 1 0 0-2H20.178a1 1 0 1 0 0 2zM12 25.497h2.71a1 1 0 1 0 0-2H12a1 1 0 1 0 0 2zM20.178 25.497h12.064a1 1 0 1 0 0-2H20.178a1 1 0 1 0 0 2zM12 32.392h2.71a1 1 0 1 0 0-2H12a1 1 0 1 0 0 2zM20.178 32.392h9.613a1 1 0 1 0 0-2h-9.613a1 1 0 1 0 0 2zM12 39.287h2.71a1 1 0 1 0 0-2H12a1 1 0 1 0 0 2zM20.178 39.287h9.613a1 1 0 1 0 0-2h-9.613a1 1 0 1 0 0 2zM12 46.182h2.71a1 1 0 1 0 0-2H12a1 1 0 1 0 0 2zM20.178 46.182h12.064a1 1 0 1 0 0-2H20.178a1 1 0 1 0 0 2zM12 53.077h2.71a1 1 0 1 0 0-2H12a1 1 0 1 0 0 2zM20.178 53.077H41.13a1 1 0 1 0 0-2H20.178a1 1 0 1 0 0 2z" fill="#ffffff" opacity="1" data-original="#000000" class=""></path></g></svg>