<svg xmlns="http://www.w3.org/2000/svg" version="1.1" xmlns:xlink="http://www.w3.org/1999/xlink" width="512" height="512" x="0" y="0" viewBox="0 0 60 60" style="enable-background:new 0 0 512 512" xml:space="preserve" class=""><g><path d="M7 60h46a7.008 7.008 0 0 0 7-7v-2a3 3 0 0 0-2-2.816V12a5.006 5.006 0 0 0-5-5h-7.716L42.53 4.246a2 2 0 0 0-2.308-.374L37.971 5a16.923 16.923 0 0 0-3-1.238l-.8-2.392A2 2 0 0 0 32.279 0h-4.558a2 2 0 0 0-1.9 1.367l-.8 2.392a16.923 16.923 0 0 0-3 1.238l-2.25-1.125a1.993 1.993 0 0 0-2.309.374L14.716 7H7a5.006 5.006 0 0 0-5 5v36.184A3 3 0 0 0 0 51v2a7.008 7.008 0 0 0 7 7Zm8.539-43.93a14.9 14.9 0 0 1 1.455-3.52 1 1 0 0 0 .027-.946l-1.361-2.72 3.224-3.223 2.72 1.36a1.007 1.007 0 0 0 .946-.027 14.9 14.9 0 0 1 3.52-1.455 1 1 0 0 0 .687-.649L27.721 2h4.558l.964 2.89a1 1 0 0 0 .687.649 14.9 14.9 0 0 1 3.52 1.455 1 1 0 0 0 .946.027l2.72-1.361 3.223 3.224-1.36 2.72a1 1 0 0 0 .027.946 14.9 14.9 0 0 1 1.455 3.52 1 1 0 0 0 .649.687l2.89.964v4.558l-2.89.964a1 1 0 0 0-.649.687 14.9 14.9 0 0 1-1.455 3.52 1 1 0 0 0-.027.946l1.361 2.72-3.224 3.223-2.72-1.36a1 1 0 0 0-.946.027 14.9 14.9 0 0 1-3.52 1.455 1 1 0 0 0-.687.649L32.279 38h-4.558l-.964-2.89a1 1 0 0 0-.687-.649 14.9 14.9 0 0 1-3.52-1.455 1.007 1.007 0 0 0-.946-.027l-2.72 1.361-3.223-3.224 1.36-2.72a1 1 0 0 0-.027-.946 14.9 14.9 0 0 1-1.455-3.52 1 1 0 0 0-.649-.687L12 22.279v-4.558l2.89-.964a1 1 0 0 0 .649-.687ZM4 12a3 3 0 0 1 3-3h6.683a1.947 1.947 0 0 0 .189.778L15 12.029a16.923 16.923 0 0 0-1.238 3l-2.392.8A2 2 0 0 0 10 17.721v4.558a2 2 0 0 0 1.367 1.9l2.392.8a16.923 16.923 0 0 0 1.238 3l-1.125 2.25a2 2 0 0 0 .374 2.309l3.224 3.224a1.993 1.993 0 0 0 2.308.374L22.029 35a16.923 16.923 0 0 0 3 1.238l.8 2.392A2 2 0 0 0 27.721 40h4.558a2 2 0 0 0 1.9-1.367l.8-2.392a16.923 16.923 0 0 0 3-1.238l2.25 1.125a2 2 0 0 0 2.309-.374l3.224-3.224a2 2 0 0 0 .374-2.308L45 27.971a16.923 16.923 0 0 0 1.238-3l2.392-.8A2 2 0 0 0 50 22.279v-4.558a2 2 0 0 0-1.367-1.9l-2.392-.8a16.923 16.923 0 0 0-1.238-3l1.125-2.25A1.956 1.956 0 0 0 46.317 9H53a3 3 0 0 1 3 3v36H4Zm17 38h18v1a2 2 0 0 1-2 2H23a2 2 0 0 1-2-2ZM2 51a1 1 0 0 1 1-1h16v1a4 4 0 0 0 4 4h14a4 4 0 0 0 4-4v-1h16a1 1 0 0 1 1 1v2a5.006 5.006 0 0 1-5 5H7a5.006 5.006 0 0 1-5-5Z" fill="#0055fa" opacity="1" data-original="#000000"></path><path d="M12 54h3a1 1 0 0 0 0-2h-3a1 1 0 0 0 0 2Z" fill="#0055fa" opacity="1" data-original="#000000"></path><circle cx="6" cy="53" r="1" fill="#0055fa" opacity="1" data-original="#000000"></circle><circle cx="9" cy="53" r="1" fill="#0055fa" opacity="1" data-original="#000000"></circle><path d="M21.515 29.485a1 1 0 0 0 .707-1.707 11.012 11.012 0 0 1 0-15.556 1 1 0 0 0-1.414-1.414 13.013 13.013 0 0 0 0 18.384.993.993 0 0 0 .707.293ZM37.778 29.192a1 1 0 0 0 1.414 0 13.013 13.013 0 0 0 0-18.384 1 1 0 0 0-1.414 1.414 11.012 11.012 0 0 1 0 15.556 1 1 0 0 0 0 1.414ZM30 33a4 4 0 1 0-4-4 4 4 0 0 0 4 4Zm0-6a2 2 0 1 1-2 2 2 2 0 0 1 2-2ZM30 23c3.134 0 4-11.88 4-12a4 4 0 0 0-8 0c0 .12.866 12 4 12Zm0-14a2 2 0 0 1 2 2c0 1.732-1.05 8.021-2 9.723-.95-1.7-2-7.991-2-9.723a2 2 0 0 1 2-2ZM42 43a1 1 0 0 0-1-1H19a1 1 0 0 0 0 2h22a1 1 0 0 0 1-1Z" fill="#0055fa" opacity="1" data-original="#000000"></path></g></svg>