<svg xmlns="http://www.w3.org/2000/svg" version="1.1" xmlns:xlink="http://www.w3.org/1999/xlink" width="512" height="512" x="0" y="0" viewBox="0 0 64 64" style="enable-background:new 0 0 512 512" xml:space="preserve" class=""><g><g data-name="Layer 36"><path d="M45.67 15.3a.75.75 0 0 0-.74-.61h-5.51a.75.75 0 1 0 0 1.5h4.89l3.35 17.89h-11a.75.75 0 0 0-.75.67l-.45 4.43a.41.41 0 0 1-.41.37H29a.41.41 0 0 1-.41-.37l-.45-4.43a.75.75 0 0 0-.75-.67h-11l3.35-17.89h4.89a.75.75 0 0 0 0-1.5h-5.56a.75.75 0 0 0-.74.61s-3.64 19.51-3.64 19.53v13.73a.75.75 0 0 0 .75.75h33.12a.75.75 0 0 0 .75-.75V34.83L45.67 15.3zm2.14 32.51H16.19V35.58h10.49l.39 3.75A1.91 1.91 0 0 0 29 41.05h6a1.91 1.91 0 0 0 1.9-1.72l.39-3.75h10.52z" fill="#ffffff" opacity="1" data-original="#000000"></path><path d="m25.52 23.06 5.95 6a.75.75 0 0 0 1.07 0l5.94-6a.75.75 0 0 0 0-1.06.75.75 0 0 0-1.06 0l-4.66 4.72v-12a.75.75 0 0 0-1.5 0v12L26.59 22a.75.75 0 0 0-1.28.52.77.77 0 0 0 .21.54z" fill="#ffffff" opacity="1" data-original="#000000"></path><path d="M49.45 60.75h-34.9a11.31 11.31 0 0 1-11.3-11.3v-34.9a11.31 11.31 0 0 1 11.3-11.3h34.9a11.31 11.31 0 0 1 11.3 11.3v34.9a11.31 11.31 0 0 1-11.3 11.3zm-34.9-56a9.82 9.82 0 0 0-9.8 9.8v34.9a9.82 9.82 0 0 0 9.8 9.8h34.9a9.82 9.82 0 0 0 9.8-9.8v-34.9a9.82 9.82 0 0 0-9.8-9.8z" fill="#ffffff" opacity="1" data-original="#000000"></path></g></g></svg>