<svg xmlns="http://www.w3.org/2000/svg" version="1.1" xmlns:xlink="http://www.w3.org/1999/xlink" width="512" height="512" x="0" y="0" viewBox="0 0 32 32" style="enable-background:new 0 0 512 512" xml:space="preserve" class=""><g><path d="M30 6v5c0 2.206-1.794 4-4 4h-5c-2.206 0-4-1.794-4-4V6c0-2.206 1.794-4 4-4h5c2.206 0 4 1.794 4 4zM11 17H6c-2.206 0-4 1.794-4 4v5c0 2.206 1.794 4 4 4h5c2.206 0 4-1.794 4-4v-5c0-2.206-1.794-4-4-4zm18 9H18a1 1 0 1 0 0 2h11a1 1 0 1 0 0-2zM11 2H6C3.794 2 2 3.794 2 6v5c0 2.206 1.794 4 4 4h5c2.206 0 4-1.794 4-4V6c0-2.206-1.794-4-4-4zm18 20H18a1 1 0 1 0 0 2h11a1 1 0 1 0 0-2zm0-4H18a1 1 0 1 0 0 2h11a1 1 0 1 0 0-2z" fill="#6B7280" opacity="1" data-original="#000000" class=""></path></g></svg>