<svg xmlns="http://www.w3.org/2000/svg" version="1.1" xmlns:xlink="http://www.w3.org/1999/xlink" width="512" height="512" x="0" y="0" viewBox="0 0 512 512" style="enable-background:new 0 0 512 512" xml:space="preserve" class=""><g><path d="M439.531 141.447H408V19.746a7 7 0 0 0-7-7H111a7 7 0 0 0-7 7v121.7H72.469A63.542 63.542 0 0 0 9 204.917v230.867a63.542 63.542 0 0 0 63.469 63.47h367.062A63.542 63.542 0 0 0 503 435.784V204.917a63.542 63.542 0 0 0-63.469-63.47zm0 14a49.179 49.179 0 0 1 28.2 8.863L408 217.671v-62.224zM118 26.746h276v203.432l-117.872 105.3a41.7 41.7 0 0 1-57.163-1.085L118 237.052zm-14 128.7v68.109l-60.724-58.54a49.2 49.2 0 0 1 29.2-9.569zm-81 49.47a49.205 49.205 0 0 1 10.258-30.11l139.6 134.583L32.031 464.226A49.182 49.182 0 0 1 23 435.784zm49.469 280.338a49.217 49.217 0 0 1-30.809-10.808l141.286-155.335 26.306 25.36a55.879 55.879 0 0 0 37.819 15.712c.358.006.714.009 1.071.009a55.872 55.872 0 0 0 37.317-14.275l33.728-30.13L469.852 474.83a49.208 49.208 0 0 1-30.321 10.424zM489 435.784a49.188 49.188 0 0 1-9.408 28.971l-149.96-158.3 148.392-132.562A49.223 49.223 0 0 1 489 204.917zM146.182 137.849h76.733a7 7 0 0 0 7-7V54.115a7 7 0 0 0-7-7h-76.733a7 7 0 0 0-7 7v76.734a7 7 0 0 0 7 7zm7-76.734h62.733v62.734h-62.733zm112.609 6.908a7 7 0 0 1 7-7h59.469a7 7 0 1 1 0 14h-59.469a7 7 0 0 1-7-7zm0 42.843a7 7 0 0 1 7-7h59.469a7 7 0 0 1 0 14h-59.469a7 7 0 0 1-7-7zm73.469 42.843a7 7 0 0 1-7 7h-184.8a7 7 0 1 1 0-14h184.8a7 7 0 0 1 7 7zm0 42.843a7 7 0 0 1-7 7h-184.8a7 7 0 0 1 0-14h184.8a7 7 0 0 1 7 7zm0 42.843a7 7 0 0 1-7 7h-184.8a7 7 0 0 1 0-14h184.8a7 7 0 0 1 7 7.005z" fill="#ffffff" opacity="1" data-original="#000000"></path></g></svg>