<svg id="Layer_1" viewBox="0 0 512 512" xmlns="http://www.w3.org/2000/svg" data-name="Layer 1"><path d="m255.751.442c141.383 0 256 114.587 256 255.963s-114.616 256.035-256 256.035-256-114.658-256-256.04 114.616-255.958 256-255.958zm-86.251 307.295v8.379a30.476 30.476 0 0 1 -.255 4.025h173a31.175 31.175 0 0 1 -.254-4.025v-8.379zm86.247-206.178a13.767 13.767 0 1 0 13.766 13.766 13.784 13.784 0 0 0 -13.766-13.766zm0 37.065a86.341 86.341 0 0 0 -86.247 86.241v75.254h172.5v-75.254a86.34 86.34 0 0 0 -86.244-86.241zm36.155 236.545v-.177h-72.309v.177a36.157 36.157 0 0 0 72.313 0zm-155.865-7.8h239.42l-26.9-32.875a29.179 29.179 0 0 1 -4.189-6.741h-177.236a29.184 29.184 0 0 1 -4.19 6.741l-26.9 32.875zm115.9-210.946a3.812 3.812 0 0 0 3.81 3.81 64.7 64.7 0 0 1 64.631 64.628 3.81 3.81 0 0 0 7.619 0 72.514 72.514 0 0 0 -72.25-72.247 3.811 3.811 0 0 0 -3.806 3.813z" fill="#0055FA" fill-rule="evenodd"/></svg>