<svg xmlns="http://www.w3.org/2000/svg" version="1.1" xmlns:xlink="http://www.w3.org/1999/xlink" width="512" height="512" x="0" y="0" viewBox="0 0 2667 2667" style="enable-background:new 0 0 512 512" xml:space="preserve" fill-rule="evenodd" class=""><g><circle cx="1333" cy="1333" r="1333" fill="#0055fa" opacity="1" data-original="#00ab94" class=""></circle><path fill="#ffffff" d="M814 1726v-516c0-235 157-435 373-498v-85c0-79 67-146 146-146 80 0 147 67 147 146v85c215 63 373 263 373 498v516H814zm433-1028c28-5 57-7 86-7 30 0 59 2 87 7v-71c0-47-40-86-87-86s-86 39-86 86zm86 1488c-56 0-109-22-150-63-26-26-44-57-54-90h409c-10 33-29 64-54 90-41 41-94 63-151 63zm513-183H820c-68 0-126-57-126-124 0-68 56-123 126-123h1026c71 0 127 55 127 123 0 67-58 124-127 124zM1333 890c184 0 333 150 333 333 0 10 8 17 17 17s17-7 17-17c0-202-165-366-367-366-9 0-16 7-16 17 0 9 7 16 16 16z" opacity="1" data-original="#ffffff"></path></g></svg>