<svg xmlns="http://www.w3.org/2000/svg" version="1.1" xmlns:xlink="http://www.w3.org/1999/xlink" width="512" height="512" x="0" y="0" viewBox="0 0 512 512" style="enable-background:new 0 0 512 512" xml:space="preserve" class=""><g><linearGradient id="a" x1="367.84" x2="142.19" y1="377.29" y2="151.64" gradientUnits="userSpaceOnUse"><stop stop-opacity="1" stop-color="#00387c" offset="0"></stop><stop stop-opacity="1" stop-color="#0074ff" offset="0.54"></stop><stop stop-opacity="1" stop-color="#0074ff" offset="1"></stop></linearGradient><linearGradient id="b" x1="281.95" x2="228.07" y1="429.45" y2="375.57" gradientUnits="userSpaceOnUse"><stop offset="0" stop-color="#34344f"></stop><stop offset=".26" stop-color="#3b3b56"></stop><stop offset=".66" stop-color="#4f4f6c"></stop><stop offset="1" stop-color="#666684"></stop></linearGradient><linearGradient id="c" x1="378.1" x2="274.6" y1="210.7" y2="107.2" gradientUnits="userSpaceOnUse"><stop offset="0" stop-color="#13b601"></stop><stop offset=".57" stop-color="#13b601"></stop><stop offset="1" stop-color="#cbf4b4"></stop></linearGradient><linearGradient id="d" x1="346.9" x2="305.74" y1="170.88" y2="129.72" gradientUnits="userSpaceOnUse"><stop offset="0" stop-color="#cbf4b4"></stop><stop offset=".57" stop-color="#fff"></stop><stop offset="1" stop-color="#fff"></stop></linearGradient><path fill="#ffffff" d="M496.52 129.86C483.09 80.38 431.63 28.93 382.15 15.49 351.81 7.93 311.17.14 256 0c-55.17.14-95.81 7.92-126.15 15.49C80.38 28.93 28.92 80.38 15.48 129.86 7.92 160.19.13 200.84 0 256.01c.14 55.17 7.92 95.81 15.49 126.15 13.44 49.48 64.89 100.93 114.37 114.37 30.34 7.57 70.98 15.35 126.15 15.49 55.16-.14 95.81-7.92 126.15-15.49 49.48-13.44 100.93-64.89 114.37-114.37 7.57-30.33 15.35-70.98 15.49-126.15-.14-55.17-7.92-95.81-15.49-126.15z" opacity="1" data-original="#fff1eb" class=""></path><path fill="url(#a)" d="M373.8 362.11c-79.19 2.42-158.38 2.42-237.57 0-19.36-.66-30.96-23.67-18.74-38.13 8.54-10.15 17.2-20.4 25.94-30.71 1.75-2.07 2.69-4.71 2.66-7.45-.68-29.89 3.07-117.7 6.13-130.5 4.71-22.02 25.28-43.79 47.08-49 13.26-2.96 31.23-5.91 55.71-5.96 24.49.05 42.45 3 55.71 5.96 21.79 5.21 42.37 26.97 47.08 49 3.06 12.79 6.81 100.6 6.13 130.5-.03 2.74.91 5.38 2.66 7.45 8.74 10.32 17.4 20.56 25.94 30.71 12.22 14.46.62 37.47-18.74 38.13z" opacity="1" data-original="url(#a)" class=""></path><path fill="url(#b)" d="M283.35 424.99c4.82-.94 9.49-5.34 10.56-10.16.61-2.92 1.2-6.9 1.21-12.32 0-5.43-.61-9.4-1.21-12.32-1.07-4.81-5.73-9.22-10.56-10.16-2.94-.59-22.91-1.31-28.33-1.25-5.42-.06-25.39.67-28.33 1.25-4.82.94-9.49 5.34-10.56 10.16-.61 2.92-1.2 6.9-1.21 12.32 0 5.43.61 9.4 1.21 12.32 1.07 4.81 5.73 9.22 10.56 10.16 2.94.59 22.91 1.31 28.33 1.25 5.42.06 25.39-.67 28.33-1.25z" opacity="1" data-original="url(#b)"></path><path fill="url(#c)" d="M326.35 85.76c-40.42 0-73.19 32.77-73.19 73.19s32.77 73.19 73.19 73.19 73.19-32.77 73.19-73.19-32.77-73.19-73.19-73.19z" opacity="1" data-original="url(#c)"></path><path fill="url(#d)" d="m367.49 148-41.86 44.14a13.32 13.32 0 0 1-9.59 4.14h-.06c-3.61 0-7.06-1.46-9.57-4.05l-21.94-22.67c-5.13-5.28-5-13.73.28-18.85 5.28-5.13 13.72-5.01 18.85.28l12.28 12.72 32.3-34.1c5.08-5.34 13.52-5.54 18.85-.46 5.34 5.08 5.54 13.52.46 18.85z" opacity="1" data-original="url(#d)"></path></g></svg>