<svg id="Layer_42" viewBox="0 0 512 512" xmlns="http://www.w3.org/2000/svg" xmlns:xlink="http://www.w3.org/1999/xlink" data-name="Layer 42"><linearGradient id="linear-gradient" gradientUnits="userSpaceOnUse" x1="380.87" x2="131.14" y1="380.87" y2="131.14"><stop offset="0" stop-color="#34344f"/><stop offset=".47" stop-color="#494965"/><stop offset="1" stop-color="#666684"/></linearGradient><linearGradient id="linear-gradient-2" gradientUnits="userSpaceOnUse" x1="326.65" x2="185.36" y1="378.37" y2="133.64"><stop offset="0" stop-color="#bce4ed"/><stop offset=".49" stop-color="#fff"/><stop offset="1" stop-color="#fff"/></linearGradient><linearGradient id="linear-gradient-3" x1="280.86" x2="231.04" xlink:href="#linear-gradient" y1="377.28" y2="327.45"/><path d="m496.53 129.86c-13.43-49.48-64.89-100.93-114.37-114.37-30.34-7.57-70.98-15.36-126.15-15.49-55.17.14-95.81 7.92-126.15 15.49-49.47 13.44-100.93 64.89-114.37 114.37-7.56 30.33-15.35 70.98-15.49 126.14.14 55.17 7.92 95.81 15.49 126.15 13.44 49.48 64.89 100.93 114.37 114.37 30.34 7.57 70.98 15.35 126.15 15.49 55.16-.14 95.81-7.92 126.15-15.49 49.48-13.44 100.93-64.89 114.37-114.37 7.57-30.33 15.35-70.98 15.49-126.15-.14-55.17-7.92-95.81-15.49-126.15z" fill="#e6f1f4"/><g><path d="m385.9 153.89c-5.41-27.88-30.88-54.84-58.69-61-16.89-3.51-39.85-6.95-71.2-7-31.36.05-54.32 3.5-71.21 7-27.81 6.16-53.28 33.12-58.69 61-3.4 16.99-7.25 51.86-7.25 102.11 0 50.25 3.85 85.12 7.25 102.11 5.41 27.88 30.88 54.84 58.69 61 16.88 3.51 39.85 6.95 71.2 7 31.36-.05 54.32-3.5 71.21-7 27.81-6.16 53.28-33.12 58.69-61 3.4-16.99 7.25-51.86 7.25-102.11 0-50.25-3.85-85.12-7.25-102.11zm-37.8 196.68-.02.11-.02.11c-2.51 12.95-16.56 27.79-28.99 30.66-12.71 2.63-32.99 6.08-63.06 6.14-14.5-.03-36.77-.7-63.06-6.13-12.43-2.87-26.48-17.71-29-30.66l-.02-.11-.02-.11c-3.14-15.72-6.5-48.81-6.5-94.56s3.36-78.84 6.5-94.56l.02-.11.02-.11c2.51-12.95 16.56-27.79 28.99-30.66 3.86-.8 8.43-1.67 13.76-2.51.3 6.86 1.14 12.16 2 16.27 1.86 8.4 10 16.09 18.42 17.72 5.13 1.03 19.44 2.29 28.9 2.19 9.46.1 23.77-1.16 28.9-2.19 8.42-1.63 16.56-9.32 18.42-17.72.85-4.11 1.69-9.41 2-16.26 4.44.69 9.03 1.51 13.75 2.49 12.43 2.87 26.48 17.71 28.99 30.66l.02.11.02.11c3.14 15.72 6.5 48.81 6.5 94.56s-3.36 78.84-6.5 94.56z" fill="url(#linear-gradient)"/><path d="m348.1 350.57-.02.11-.02.11c-2.51 12.95-16.56 27.79-28.99 30.66-12.71 2.63-32.99 6.08-63.06 6.14-14.5-.03-36.77-.7-63.06-6.13-12.43-2.87-26.48-17.71-29-30.66l-.02-.11-.02-.11c-3.14-15.72-6.5-48.81-6.5-94.56s3.36-78.84 6.5-94.56l.02-.11.02-.11c2.51-12.95 16.56-27.79 28.99-30.66 3.86-.8 8.43-1.67 13.76-2.51.3 6.86 1.14 12.16 2 16.27 1.86 8.4 10 16.09 18.42 17.72 5.13 1.03 19.44 2.29 28.9 2.19 9.46.1 23.77-1.16 28.9-2.19 8.42-1.63 16.56-9.32 18.42-17.72.85-4.11 1.69-9.41 2-16.26 4.44.69 9.03 1.51 13.75 2.49 12.43 2.87 26.48 17.71 28.99 30.66l.02.11.02.11c3.14 15.72 6.5 48.81 6.5 94.56s-3.36 78.84-6.5 94.56z" fill="url(#linear-gradient-2)"/><path d="m255.92 366.29c-11.35-.02-22.43-.47-32.98-1.34-6.95-.57-12.12-6.67-11.55-13.62s6.67-12.12 13.62-11.55c9.87.81 20.27 1.23 30.91 1.25 10.63-.02 21.07-.44 30.97-1.26 6.94-.57 13.05 4.59 13.62 11.54s-4.59 13.05-11.54 13.62c-10.58.87-21.7 1.33-33.05 1.35z" fill="url(#linear-gradient-3)"/></g></svg>