<svg xmlns="http://www.w3.org/2000/svg" version="1.1" xmlns:xlink="http://www.w3.org/1999/xlink" width="512" height="512" x="0" y="0" viewBox="0 0 128 128" style="enable-background:new 0 0 512 512" xml:space="preserve" class=""><g><path d="M100.738 27.262c-20.258-20.258-53.219-20.258-73.477 0-20.258 20.257-20.258 53.219 0 73.477 10.13 10.128 23.434 15.193 36.739 15.193s26.609-5.064 36.738-15.193c20.258-20.259 20.258-53.22 0-73.477zm-2.121 71.355c-19.088 19.088-50.146 19.088-69.234 0s-19.088-50.146 0-69.234C38.927 19.839 51.464 15.067 64 15.067s25.073 4.772 34.617 14.316c19.088 19.088 19.088 50.146 0 69.234zM93.955 64a1.5 1.5 0 0 1-1.5 1.5H65.5v26.955a1.5 1.5 0 0 1-3 0V65.5H35.545a1.5 1.5 0 1 1 0-3H62.5V35.545a1.5 1.5 0 1 1 3 0V62.5h26.955a1.5 1.5 0 0 1 1.5 1.5z" fill="#ffffff" opacity="1" data-original="#000000"></path></g></svg>