<svg xmlns="http://www.w3.org/2000/svg" version="1.1" xmlns:xlink="http://www.w3.org/1999/xlink" width="512" height="512" x="0" y="0" viewBox="0 0 100 100" style="enable-background:new 0 0 512 512" xml:space="preserve" class=""><g><path d="M83.85 98.75h-67.7a11 11 0 0 1-11-11V38.18a.75.75 0 0 1 .75-.75h88.23a.75.75 0 0 1 .75.75v49.57a11 11 0 0 1-11.03 11ZM6.62 38.93v48.82a9.52 9.52 0 0 0 9.53 9.5h67.7a9.52 9.52 0 0 0 9.53-9.5V38.93Z" fill="#6B7280" opacity="1" data-original="#000000"></path><path d="M94.13 38.93H5.87a.76.76 0 0 1-.75-.75V24.24a11 11 0 0 1 11-11h8.48a.76.76 0 0 1 .75.75v4.81a5.14 5.14 0 0 0 10.27 0V14a.76.76 0 0 1 .75-.75h27.26a.76.76 0 0 1 .75.75v4.8a5.14 5.14 0 0 0 5.13 5.11 5.13 5.13 0 0 0 5.14-5.11V14a.76.76 0 0 1 .75-.75h8.45a11 11 0 0 1 11 11v13.93a.76.76 0 0 1-.72.75Zm-87.51-1.5h86.76V24.24a9.53 9.53 0 0 0-9.53-9.5h-7.7v4.06a6.63 6.63 0 0 1-11.32 4.67 6.5 6.5 0 0 1-1.95-4.67v-4.06H37.12v4.06a6.63 6.63 0 0 1-11.32 4.67 6.5 6.5 0 0 1-1.95-4.67v-4.06h-7.7a9.53 9.53 0 0 0-9.53 9.5Z" fill="#6B7280" opacity="1" data-original="#000000"></path><path d="M69.51 25.41a6.57 6.57 0 0 1-4.68-1.94 6.5 6.5 0 0 1-1.95-4.67V7.86A6.63 6.63 0 0 1 74.2 3.19a6.5 6.5 0 0 1 2 4.67V18.8a6.64 6.64 0 0 1-6.69 6.61Zm0-22.66a5.12 5.12 0 0 0-5.13 5.11V18.8a5.14 5.14 0 0 0 5.13 5.11 5.13 5.13 0 0 0 5.14-5.11V7.86a5.14 5.14 0 0 0-5.14-5.11ZM30.49 25.41a6.6 6.6 0 0 1-4.69-1.94 6.5 6.5 0 0 1-1.95-4.67V7.86a6.63 6.63 0 0 1 11.32-4.67 6.5 6.5 0 0 1 1.95 4.67V18.8a6.63 6.63 0 0 1-6.63 6.61Zm0-22.66a5.13 5.13 0 0 0-5.14 5.11V18.8a5.14 5.14 0 0 0 10.27 0V7.86a5.14 5.14 0 0 0-5.13-5.11ZM64.84 91.18H35.16a3.84 3.84 0 0 1-3.83-3.83V72.73a.76.76 0 0 1 .75-.75h6.15a.76.76 0 0 1 .75.75v3.41a.61.61 0 0 0 .61.61h2.81a.61.61 0 0 0 .62-.61v-3.41a.75.75 0 0 1 .75-.75h12.46a.76.76 0 0 1 .75.75v3.41a.61.61 0 0 0 .61.61h2.82a.61.61 0 0 0 .61-.61v-3.41a.76.76 0 0 1 .75-.75h6.15a.76.76 0 0 1 .75.75v14.62a3.84 3.84 0 0 1-3.83 3.83Zm-32-17.7v13.87a2.34 2.34 0 0 0 2.33 2.33h29.67a2.34 2.34 0 0 0 2.33-2.33V73.48h-4.65v2.66a2.12 2.12 0 0 1-2.11 2.11h-2.82a2.12 2.12 0 0 1-2.11-2.11v-2.66h-11v2.66a2.12 2.12 0 0 1-2.12 2.11h-2.77a2.11 2.11 0 0 1-2.11-2.11v-2.66Z" fill="#6B7280" opacity="1" data-original="#000000"></path><path d="M67.94 73.48h-6.17a.76.76 0 0 1-.75-.75v-1.84a.61.61 0 0 0-.61-.61h-2.82a.61.61 0 0 0-.61.61v1.84a.76.76 0 0 1-.75.75H43.77a.75.75 0 0 1-.75-.75v-1.84a.61.61 0 0 0-.62-.61h-2.81a.61.61 0 0 0-.61.61v1.84a.76.76 0 0 1-.75.75h-6.17A3.46 3.46 0 0 1 28.6 70V57.74a3.46 3.46 0 0 1 3.46-3.46h35.88a3.46 3.46 0 0 1 3.46 3.46V70a3.46 3.46 0 0 1-3.46 3.48ZM62.52 72h5.42a2 2 0 0 0 2-2V57.74a2 2 0 0 0-2-2H32.06a2 2 0 0 0-2 2V70a2 2 0 0 0 2 2h5.42v-1.11a2.11 2.11 0 0 1 2.11-2.11h2.81a2.12 2.12 0 0 1 2.12 2.11V72h11v-1.11a2.12 2.12 0 0 1 2.11-2.11h2.82a2.12 2.12 0 0 1 2.11 2.11Z" fill="#6B7280" opacity="1" data-original="#000000"></path><path d="M61.11 55.78H38.88a.75.75 0 0 1-.75-.75V48a3 3 0 0 1 3-3h17.75a3 3 0 0 1 3 3v7a.75.75 0 0 1-.77.78Zm-21.48-1.5h20.73V48a1.48 1.48 0 0 0-1.48-1.48H41.12A1.49 1.49 0 0 0 39.63 48ZM42.4 78.25h-2.81a2.11 2.11 0 0 1-2.11-2.11v-5.25a2.11 2.11 0 0 1 2.11-2.11h2.81a2.12 2.12 0 0 1 2.12 2.11v5.25a2.12 2.12 0 0 1-2.12 2.11Zm-2.81-8a.61.61 0 0 0-.61.61v5.25a.61.61 0 0 0 .61.61h2.81a.61.61 0 0 0 .62-.61v-5.22a.61.61 0 0 0-.62-.61ZM60.41 78.25h-2.82a2.12 2.12 0 0 1-2.11-2.11v-5.25a2.12 2.12 0 0 1 2.11-2.11h2.82a2.12 2.12 0 0 1 2.11 2.11v5.25a2.12 2.12 0 0 1-2.11 2.11Zm-2.82-8a.61.61 0 0 0-.61.61v5.25a.61.61 0 0 0 .61.61h2.82a.61.61 0 0 0 .61-.61v-5.22a.61.61 0 0 0-.61-.61Z" fill="#6B7280" opacity="1" data-original="#000000"></path></g></svg>