<svg xmlns="http://www.w3.org/2000/svg" version="1.1" xmlns:xlink="http://www.w3.org/1999/xlink" width="512" height="512" x="0" y="0" viewBox="0 0 32 32" style="enable-background:new 0 0 512 512" xml:space="preserve" class=""><g><path d="M14 10.9h2c-1.7 0-3-1.3-3-3s1.3-3 3-3 3 1.3 3 3-1.3 3-3 3h2c1.5 0 2.8 1.1 3 2.6L30 9 16.9 2.2c-.6-.3-1.2-.3-1.8 0L2 9l9 4.5c.2-1.5 1.5-2.6 3-2.6zM2 10l13.5 6.8V30L3.1 23.6c-.7-.3-1.1-1-1.1-1.8zM30 10l-13.5 6.8V30l12.4-6.4c.7-.3 1.1-1 1.1-1.8z" fill="#ffffff" opacity="1" data-original="#000000" class=""></path></g></svg>