<svg xmlns="http://www.w3.org/2000/svg" version="1.1" xmlns:xlink="http://www.w3.org/1999/xlink" width="512" height="512" x="0" y="0" viewBox="0 0 512 512" style="enable-background:new 0 0 512 512" xml:space="preserve" class=""><g><path d="M384 53.333c-47.128 0-85.333 38.205-85.333 85.333S336.872 224 384 224c47.106-.053 85.28-38.227 85.333-85.333 0-47.129-38.205-85.334-85.333-85.334zm0 149.334c-35.346 0-64-28.654-64-64 0-35.346 28.654-64 64-64 35.332.035 63.965 28.668 64 64 0 35.346-28.654 64-64 64z" fill="#ffffff" opacity="1" data-original="#000000" class=""></path><path d="m408.459 109.792-35.125 35.125-13.792-13.792-15.083 15.083 21.333 21.333a10.662 10.662 0 0 0 15.082 0l42.667-42.667-15.082-15.082zM213.333 277.333h149.333v21.333H213.333zM234.667 128H117.333c-41.218.047-74.62 33.449-74.667 74.667H64c.035-29.441 23.893-53.298 53.333-53.333h117.333c11.782 0 21.333 9.551 21.333 21.333 0 11.782-9.551 21.333-21.333 21.333H117.333v21.333h117.333c23.564 0 42.667-19.102 42.667-42.667S258.231 128 234.667 128z" fill="#ffffff" opacity="1" data-original="#000000" class=""></path><path d="M10.667 170.667C4.776 170.667 0 175.442 0 181.333V192h53.333v-21.333H10.667zM490.667 309.333v149.333c0 17.673-14.327 32-32 32h-256c-17.673 0-32-14.327-32-32v-256h-21.333v256c.035 29.441 23.893 53.298 53.333 53.333h256c29.441-.035 53.298-23.893 53.333-53.333V309.333h-21.333zM458.667 0H245.333a10.67 10.67 0 0 0-7.541 3.125l-85.333 85.333 15.083 15.083 82.208-82.208h208.917c17.673 0 32 14.327 32 32v149.333H512V53.333C511.965 23.893 488.107.035 458.667 0z" fill="#ffffff" opacity="1" data-original="#000000" class=""></path><path d="M252.877 3.128c-4.165-4.166-10.919-4.167-15.085-.002l-85.333 85.333A10.662 10.662 0 0 0 149.334 96v42.667h21.333v-38.251l64-64v38.251c0 5.891-4.776 10.667-10.667 10.667h-21.333v21.333H224c17.673 0 32-14.327 32-32v-64a10.667 10.667 0 0 0-3.123-7.539zM64 288H42.667c.047 41.218 33.449 74.62 74.667 74.667v-21.333C87.893 341.298 64.035 317.441 64 288z" fill="#ffffff" opacity="1" data-original="#000000" class=""></path><path d="M117.333 341.333H160v21.333h-42.667zM0 298.667v10.667C0 315.224 4.776 320 10.667 320h42.667v-21.333H0zM502.741 233.259c-12.505-11.932-32.178-11.932-44.683 0l-148 148c-4.164 4.165-4.164 10.917 0 15.083l29.6 29.6a10.662 10.662 0 0 0 15.082 0l148-148 .016-.016c12.331-12.34 12.324-32.337-.015-44.667zm-15.082 29.6L347.2 403.317 332.683 388.8l140.459-140.459a10.506 10.506 0 0 1 14.517 0l.006.006c4.005 4.009 4.003 10.506-.006 14.512z" fill="#ffffff" opacity="1" data-original="#000000" class=""></path><path d="m342.4 408.864-30.549 15.264 15.296-30.581L308.064 384l-29.611 59.232a10.657 10.657 0 0 0-1.125 4.773c.003 5.891 4.781 10.664 10.672 10.662 1.65.014 3.281-.351 4.768-1.067L352 427.947l-9.6-19.083zM421.069 285.368l15.086-15.082 29.593 29.6-15.087 15.083z" fill="#ffffff" opacity="1" data-original="#000000" class=""></path><path d="M213.333 437.333H288v21.333h-74.667zM213.333 384h64v21.333h-64zM213.333 330.667h96V352h-96zM352 437.333h96v21.333h-96zM405.333 384H448v21.333h-42.667z" fill="#ffffff" opacity="1" data-original="#000000" class=""></path></g></svg>