<svg xmlns="http://www.w3.org/2000/svg" version="1.1" xmlns:xlink="http://www.w3.org/1999/xlink" width="512" height="512" x="0" y="0" viewBox="0 0 16 16" style="enable-background:new 0 0 512 512" xml:space="preserve"><g><path d="M15.5 16a.47.47 0 0 1-.35-.15l-2-2c-.2-.2-.2-.51 0-.71s.51-.2.71 0l2 2c.2.2.2.51 0 .71-.1.1-.23.15-.35.15z" fill="#ffffff" opacity="1" data-original="#000000"></path><path d="M11 15c-2.21 0-4-1.79-4-4s1.79-4 4-4 4 1.79 4 4-1.79 4-4 4zm0-7c-1.65 0-3 1.35-3 3s1.35 3 3 3 3-1.35 3-3-1.35-3-3-3zM5.5 4h-2c-.28 0-.5-.22-.5-.5s.22-.5.5-.5h2c.28 0 .5.22.5.5s-.22.5-.5.5zM8 6.5H3.5c-.28 0-.5-.22-.5-.5s.22-.5.5-.5H8c.28 0 .5.22.5.5s-.22.5-.5.5z" fill="#ffffff" opacity="1" data-original="#000000"></path><path d="M7.5 16h-5A2.5 2.5 0 0 1 0 13.5v-11A2.5 2.5 0 0 1 2.5 0h11A2.5 2.5 0 0 1 16 2.5V7c0 .28-.22.5-.5.5S15 7.28 15 7V2.5c0-.83-.67-1.5-1.5-1.5h-11C1.67 1 1 1.67 1 2.5v11c0 .83.67 1.5 1.5 1.5h5c.28 0 .5.22.5.5s-.22.5-.5.5z" fill="#ffffff" opacity="1" data-original="#000000"></path></g></svg>