<svg id="EDIT_GRAD_FILL" viewBox="0 0 512 512" xmlns="http://www.w3.org/2000/svg" xmlns:xlink="http://www.w3.org/1999/xlink" data-name="EDIT GRAD FILL"><linearGradient id="linear-gradient" gradientUnits="userSpaceOnUse" x1="416.02" x2="230.01" y1="394.29" y2="208.27"><stop offset="0" stop-color="#1eb4eb"/><stop offset=".54" stop-color="#1eb4eb"/><stop offset="1" stop-color="#92f4fe"/></linearGradient><linearGradient id="linear-gradient-2" gradientUnits="userSpaceOnUse" x1="279.24" x2="100.98" y1="279.93" y2="101.67"><stop offset="0" stop-color="#34344f"/><stop offset=".26" stop-color="#3b3b56"/><stop offset=".66" stop-color="#4f4f6c"/><stop offset="1" stop-color="#666684"/></linearGradient><path d="m496.53 129.86c-13.43-49.48-64.89-100.93-114.37-114.37-30.34-7.56-70.98-15.35-126.15-15.49-55.17.14-95.81 7.92-126.15 15.49-49.47 13.44-100.93 64.89-114.37 114.37-7.56 30.33-15.35 70.98-15.49 126.15.14 55.17 7.92 95.81 15.49 126.15 13.44 49.48 64.89 100.93 114.37 114.37 30.34 7.57 70.98 15.35 126.15 15.49 55.16-.14 95.81-7.92 126.15-15.49 49.48-13.44 100.93-64.89 114.37-114.37 7.57-30.33 15.35-70.98 15.49-126.15-.14-55.17-7.92-95.81-15.49-126.15z" fill="#dff8ff"/><g><path d="m422.49 361.06c-9.71-11.24-21.63-19.47-33.17-27.44-5.76-3.98-11.69-8.07-17.22-12.48 9.06-14.48 13.83-31.09 13.83-48.32 0-50.35-40.99-91.3-91.37-91.3s-91.37 40.96-91.37 91.3 40.99 91.3 91.37 91.3c17.21 0 33.81-4.75 48.29-13.78 4.41 5.53 8.51 11.45 12.49 17.22 7.97 11.53 16.21 23.45 27.46 33.15l.63.47c3.56 2.21 7.69 3.29 11.89 3.29 6.11 0 12.35-2.28 17.15-6.65l6.94-6.93.16-.17c7.39-8.09 8.81-20.3 3.37-29.02l-.47-.63zm-127.93-40.23c-27.04 0-49.04-21.98-49.04-49.01s22-49.01 49.04-49.01 49.04 21.98 49.04 49.01-22 49.01-49.04 49.01z" fill="url(#linear-gradient)"/><path d="m85.77 123.5c0-8.81 7.15-15.96 15.96-15.96h263.56c8.81 0 15.96 7.15 15.96 15.96s-7.15 15.96-15.96 15.96h-263.57c-8.81 0-15.96-7.15-15.96-15.96zm15.95 89.76h89.99c8.81 0 15.96-7.15 15.96-15.96s-7.15-15.96-15.96-15.96h-89.99c-8.81 0-15.96 7.15-15.96 15.96s7.15 15.96 15.96 15.96zm0 73.79h58.74c8.81 0 15.96-7.15 15.96-15.96s-7.15-15.96-15.96-15.96h-58.74c-8.81 0-15.96 7.15-15.96 15.96s7.15 15.96 15.96 15.96zm0 73.8h89.99c8.81 0 15.96-7.15 15.96-15.96s-7.15-15.96-15.96-15.96h-89.99c-8.81 0-15.96 7.15-15.96 15.96s7.15 15.96 15.96 15.96z" fill="url(#linear-gradient-2)"/><path d="m294.56 320.83c-27.04 0-49.04-21.98-49.04-49.01s22-49.01 49.04-49.01 49.04 21.98 49.04 49.01-22 49.01-49.04 49.01z" fill="#cfecf9"/></g></svg>