<svg xmlns="http://www.w3.org/2000/svg" version="1.1" xmlns:xlink="http://www.w3.org/1999/xlink" width="512" height="512" x="0" y="0" viewBox="0 0 32 32" style="enable-background:new 0 0 512 512" xml:space="preserve" class=""><g><path d="M26 4a2 2 0 0 1-2-2 1 1 0 0 0-1-1H9a1 1 0 0 0-1 1 2 2 0 0 1-2 2 1 1 0 0 0-1 1v10.23a16.83 16.83 0 0 0 10.63 15.7 1 1 0 0 0 .74 0A16.83 16.83 0 0 0 27 15.23V5a1 1 0 0 0-1-1zm-1 11.23a14.83 14.83 0 0 1-9 13.69 14.83 14.83 0 0 1-9-13.69V5.87A4 4 0 0 0 9.87 3h12.26A4 4 0 0 0 25 5.87zM1 7.63h2v10.74H1zM29 7.63h2v10.74h-2z" fill="#6b7280" opacity="1" data-original="#000000" class=""></path><path d="M19.1 10.1a3.45 3.45 0 0 0 .4-1.6 3.5 3.5 0 0 0-7 0 3.45 3.45 0 0 0 .4 1.6A5 5 0 0 0 11 14v2a1 1 0 0 0 1 1h8a1 1 0 0 0 1-1v-2a5 5 0 0 0-1.9-3.9zM16 7a1.5 1.5 0 1 1-1.5 1.5A1.5 1.5 0 0 1 16 7zm3 8h-6v-1a3 3 0 0 1 1.3-2.46 3.37 3.37 0 0 0 3.4 0A3 3 0 0 1 19 14zM11 19h10v2H11zM13.5 23h5v2h-5z" fill="#6b7280" opacity="1" data-original="#000000" class=""></path></g></svg>