<svg xmlns="http://www.w3.org/2000/svg" version="1.1" xmlns:xlink="http://www.w3.org/1999/xlink" width="512" height="512" x="0" y="0" viewBox="0 0 512 512" style="enable-background:new 0 0 512 512" xml:space="preserve" class=""><g><path d="M448.731 160.729a10.002 10.002 0 0 0-7.278-6.053 9.994 9.994 0 0 0-9.064 2.729l-49.321 49.321-25.927-6.947-6.947-25.928 49.32-49.32a10 10 0 0 0-3.323-16.342 95.24 95.24 0 0 0-35.923-6.948V45.694C360.266 20.498 339.767 0 314.571 0H102.035C76.839 0 56.341 20.498 56.341 45.694v420.611c0 25.196 20.498 45.694 45.694 45.694h212.536c25.196 0 45.694-20.498 45.694-45.694v-174.74c24.891.014 49.378-9.69 67.518-27.83a95.06 95.06 0 0 0 20.948-103.006zM271.807 20l-5.25 16.157H150.049L144.8 20zm42.764 472H102.035c-14.167 0-25.694-11.526-25.694-25.694V45.694C76.341 31.526 87.868 20 102.035 20h21.735l9.503 29.247a10 10 0 0 0 9.511 6.91h131.039a10 10 0 0 0 9.511-6.91L292.836 20h21.735c14.168 0 25.694 11.526 25.694 25.694v57.715a95.067 95.067 0 0 0-47.083 25.725c-24.605 24.605-33.712 60.888-24.059 94.019l-62.905 62.904c-17.822 17.823-17.822 46.822 0 64.644 8.605 8.605 20.084 13.345 32.322 13.345s23.716-4.739 32.321-13.345l62.905-62.904a94.508 94.508 0 0 0 6.5 1.642v176.868c0 14.167-11.527 25.693-25.695 25.693zm19.92-225.008a9.996 9.996 0 0 0-10.521 2.314l-67.251 67.251c-4.828 4.828-11.284 7.487-18.179 7.487-6.896 0-13.352-2.659-18.18-7.487-10.023-10.023-10.023-26.334.001-36.358l67.251-67.251a10 10 0 0 0 2.315-10.521c-10.083-27.431-3.253-58.499 17.397-79.15 14.402-14.401 33.584-22.049 53.145-22.049 4.31 0 8.639.372 12.938 1.124l-41.439 41.439a10 10 0 0 0-2.588 9.659l9.936 37.081a10 10 0 0 0 7.071 7.071l37.081 9.936a9.996 9.996 0 0 0 9.659-2.588l41.44-41.439a75.082 75.082 0 0 1-20.925 66.082c-20.652 20.652-51.72 27.478-79.151 17.399zm-126.188 144.42c-16.818 0-30.5 13.683-30.5 30.5s13.682 30.5 30.5 30.5 30.5-13.683 30.5-30.5-13.682-30.5-30.5-30.5zm0 41c-5.79 0-10.5-4.71-10.5-10.5s4.71-10.5 10.5-10.5 10.5 4.71 10.5 10.5-4.71 10.5-10.5 10.5z" fill="#ffffff" opacity="1" data-original="#000000" class=""></path></g></svg>