<?xml version="1.0" encoding="UTF-8"?> <!-- Generator: Adobe Illustrator 25.2.0, SVG Export Plug-In . SVG Version: 6.00 Build 0) --> <svg xmlns="http://www.w3.org/2000/svg" xmlns:xlink="http://www.w3.org/1999/xlink" version="1.1" id="Capa_1" x="0px" y="0px" viewBox="0 0 512 512" style="enable-background:new 0 0 512 512;" xml:space="preserve"> <style type="text/css"> .st0{fill:#7FC5E2;} </style> <path class="st0" d="M437.74,84.95l-174-52.2c-2.43-0.73-5.03-0.73-7.47,0L82.26,84.95C76.76,86.6,73,91.66,73,97.4v191.4 c0,24.9,10.08,50.38,29.95,75.75c15.18,19.37,36.18,38.83,62.42,57.82c44.08,31.91,87.49,51.48,89.31,52.3 c1.69,0.76,3.5,1.14,5.31,1.14c1.81,0,3.62-0.38,5.31-1.14c1.83-0.82,45.23-20.39,89.31-52.3c26.24-18.99,47.24-38.45,62.42-57.82 C436.92,339.18,447,313.7,447,288.8V97.4C447,91.66,443.24,86.6,437.74,84.95z M253.95,355.71l-47.46-36.92V197.07h-57.1 l-33.21-44.79h137.78V355.71z M370.61,197.07h-57.1v121.72l-47.46,36.92V152.29h137.78L370.61,197.07z"></path> </svg> 