<svg xmlns="http://www.w3.org/2000/svg" version="1.1" xmlns:xlink="http://www.w3.org/1999/xlink" width="512" height="512" x="0" y="0" viewBox="0 0 500 500" style="enable-background:new 0 0 512 512" xml:space="preserve" class=""><g><path fill-rule="evenodd" d="M230.4 65h39.2c26 0 46.4 0 62.8 1.3 16.7 1.4 30.5 4.2 43 10.6 20.5 10.5 37.2 27.2 47.7 47.7 6.4 12.5 9.2 26.3 10.6 43 1.3 16.4 1.3 36.8 1.3 62.8v39.2c0 26 0 46.4-1.3 62.8-1.4 16.7-4.2 30.5-10.6 43a109.91 109.91 0 0 1-47.7 47.7c-12.5 6.4-26.3 9.2-43 10.6-16.4 1.3-36.8 1.3-62.8 1.3h-39.2c-26 0-46.4 0-62.8-1.3-16.7-1.4-30.5-4.2-43-10.6-20.6-10.5-37.2-27.1-47.7-47.7-6.4-12.5-9.2-26.3-10.6-43C65 316 65 295.6 65 269.6v-39.2c0-26 0-46.4 1.3-62.8 1.4-16.7 4.2-30.5 10.6-43C87.4 104 104 87.4 124.6 76.9c12.5-6.4 26.3-9.2 43-10.6C184 65 204.4 65 230.4 65zm-60.5 29.7c-14.9 1.2-24.6 3.6-32.4 7.5-15.2 7.7-27.5 20.1-35.2 35.2-4 7.8-6.3 17.4-7.5 32.4-1.2 15.1-1.2 34.4-1.2 61.2v38c0 26.8 0 46 1.2 61.2 1.2 14.9 3.6 24.6 7.5 32.4 7.7 15.2 20.1 27.5 35.2 35.2 7.8 4 17.4 6.3 32.4 7.5 15.1 1.2 34.4 1.2 61.2 1.2H269c26.8 0 46 0 61.2-1.2 14.9-1.2 24.6-3.6 32.4-7.5 15.2-7.7 27.5-20.1 35.2-35.2 4-7.8 6.3-17.4 7.5-32.4 1.2-15.1 1.2-34.4 1.2-61.2v-38c0-26.8 0-46-1.2-61.2-1.2-14.9-3.6-24.6-7.5-32.4-7.7-15.2-20.1-27.5-35.2-35.2-7.8-4-17.4-6.3-32.4-7.5-15.1-1.2-34.4-1.2-61.2-1.2h-38c-26.8 0-46 0-61.1 1.2zM260.6 288l14.5-123.6c1.8-15-10-28.3-25.1-28.3s-26.9 13.2-25.1 28.3L239.4 288c.6 5.4 5.2 9.4 10.6 9.4s10-4 10.6-9.4zM250 363.8c10.5 0 19-8.5 19-19s-8.5-19-19-19-19 8.5-19 19 8.5 19 19 19z" clip-rule="evenodd" fill="#ffffff" opacity="1" data-original="#000000" class=""></path></g></svg>