<svg xmlns="http://www.w3.org/2000/svg" version="1.1" xmlns:xlink="http://www.w3.org/1999/xlink" width="512" height="512" x="0" y="0" viewBox="0 0 512 512" style="enable-background:new 0 0 512 512" xml:space="preserve" class=""><g><path fill="#211e1f" d="M189.3 304.9c-14.7 0-28.5-6.5-36.6-17.2-1.4-1.9-1.1-4.6.8-6s4.6-1.1 6 .8c12.9 18.2 46.5 18.3 59.4 0 1.4-1.9 4.1-2.3 6-.8 1.9 1.4 2.3 4.1.8 6-8.1 10.8-21.7 17.2-36.4 17.2z" opacity="1" data-original="#211e1f" class=""></path><path fill="#fffdfc" d="M410.5 506.8H283c-10 0-15.6-8.1-12.6-18.1L328 299.5c3-10 13.6-18.1 23.6-18.1h127.5c10 0 15.6 8.1 12.6 18.1l-57.6 189.2c-3.1 10-13.6 18.1-23.6 18.1z" opacity="1" data-original="#fff3e8" class=""></path><path fill="#000000" d="M359.2 425.1c-1.4 0-2.7-.7-3.5-1.8l-18-25.9c-3.2-4.6 3.8-9.4 7-4.9l15.4 22.2 66.1-50.6c1.9-1.4 4.5-1.1 6 .8 1.4 1.9 1.1 4.6-.8 6l-69.6 53.4c-.7.5-1.7.8-2.6.8z" opacity="1" data-original="#ffc5c5" class=""></path><path fill="#7ea7f6" d="M331.8 76.3c19.3 31.2 24.3 71.3 15.3 106.8-5.5-1.2-12.1-2-19.5-1.7-30.3-5.1-71.6-31.3-89.7-61.1 0 0 43.8-48.5 47.6-89.4C304 42.2 320 57.4 331.8 76.3z" opacity="1" data-original="#89b9ad" class=""></path><path fill="#000000" d="M331.1 207.1c.2 6.4-.2 12.7-1 19.1 1.3-10.3 1.3-20.7 0-31.1.5 3.9.8 7.9 1 12zM329.7 192.7z" opacity="1" data-original="#ffd8cf" class=""></path><path fill="#fffbf8" d="M330.9 207.1c-.2-8.6-1.5-17.3-3.4-25.7-30.9-5.4-71.8-31.6-89.7-61.1-18.8 13.3-44.8 28.5-77.7 39.9-34.4 12.2-76.3 17.7-107.6 21.2-5.1 21.6-4.5 45.5 2.2 66.6h-.1c17 57.3 75.6 97.1 135.4 96.2v-.1h.1v.1c74.9 1.4 143.3-60.6 140.8-137.1zm-163.4 21.8c0 12.9-10.5 23.4-23.4 23.4h-30.9c-12.9 0-23.4-10.5-23.4-23.4v-24.1c0-5.9 4.8-10.7 10.7-10.7h56.3c5.9 0 10.7 4.8 10.7 10.7zm122.9 0c0 12.9-10.5 23.4-23.4 23.4h-30.9c-12.9 0-23.4-10.5-23.4-23.4v-24.1c0-5.9 4.8-10.7 10.7-10.7h56.3c5.9 0 10.7 4.8 10.7 10.7z" opacity="1" data-original="#fffbf8" class=""></path><path fill="#000000" d="M328.4 185c.2.8.3 1.7.5 2.4-.2-.7-.3-1.6-.5-2.4z" opacity="1" data-original="#ffd8cf" class=""></path><path fill="#fffdfc" d="M347.1 183.1c5.3 1.1 11 2.6 12.3 8.5.3 1.5.7 3.2.9 5.2 2.6 17.2-6.1 45.2-34.9 51.2 6.7-21.5 7.4-44.8 2.2-66.6 7.4-.3 14 .5 19.5 1.7z" opacity="1" data-original="#fff3e8" class=""></path><path fill="#000000" d="M328.4 185c-.2-.7-.4-1.6-.5-2.3.1.8.3 1.6.5 2.3z" opacity="1" data-original="#ffd8cf" class=""></path><path fill="#0055fa" d="M270.5 488.8c-3.1 10 2.5 18 12.5 18H51.9v-64.2c-.5-48.9 35.8-92.5 81.9-109.4 14.3 59.7 98.5 59.4 112.5 0 22.7 8.3 44.1 23.9 58.5 42.7-5.6 18.5-28.2 92.9-34.3 112.9z" opacity="1" data-original="#a8cbaa" class=""></path><path fill="#000000" d="M226.2 339.7c-2.3.6-4.6 1.1-6.9 1.6l.1-.1c2.2-.4 4.5-.9 6.8-1.5zM219.3 341.3c-1.6.3-3.1.6-4.7.9 1.6-.3 3.1-.6 4.7-.9zM190.1 344.1h.1v.1h-.1z" opacity="1" data-original="#ffd8cf" class=""></path><path fill="#fffdfc" d="M190 344.2c19.5.1 38.5-3.8 56.3-11-14.1 59.4-98.3 59.7-112.5 0 17.8 7.3 36.8 10.9 56.2 11z" opacity="1" data-original="#fff3e8" class=""></path><path fill="#000000" d="M168 342.5c-7.2-1.1-14.2-2.6-20.9-4.7 6.7 2.1 13.7 3.7 20.9 4.7zM146.9 337.8c.1 0 .1 0 .1.1z" opacity="1" data-original="#ffd8cf" class=""></path><path fill="#000000" d="M147 337.9c-2.2-.7-4.4-1.4-6.7-2.2 2.2.7 4.5 1.4 6.7 2.2zM53.4 243.5c.5 1.5.9 3 1.3 4.4h-.1c-.4-1.4-.8-2.9-1.2-4.4z" opacity="1" data-original="#ffd8cf" class=""></path><path fill="#fffdfc" d="M54.7 248c-30.3-6.5-38.9-36.8-33.9-56.4.7-3.4 3.2-6 6.5-7 8.1-2.3 15.7-3.6 25.3-3.2-5.2 21.6-4.4 45.4 2.1 66.6z" opacity="1" data-original="#fff3e8" class=""></path><path fill="#0055fa" d="M34.7 182.8c-9.1-47.9 6.9-136.1 91.9-166.4 50.8-19 112.1-14 158.7 14.5-3.8 40.9-47.6 89.4-47.6 89.4-18.8 13.3-44.8 28.5-77.7 39.9-41.3 14.5-86.1 18.8-125.3 22.6z" opacity="1" data-original="#a8cbaa" class=""></path><path fill="#000000" d="M212.8 209h-45.3c-5.6 0-5.6-8.5 0-8.5h45.3c5.6 0 5.6 8.5 0 8.5zM89.8 209c-.4 0-.9-.1-1.3-.2L47.9 196c-5.3-1.7-2.8-9.8 2.6-8.1l40.7 12.8c4.5 1.3 3.3 8.5-1.4 8.3zM290.4 209c-4.6.2-5.9-6.8-1.5-8.3l38.9-14.6c5.2-1.9 8.2 6 3 8l-38.9 14.6c-.5.3-1 .3-1.5.3z" opacity="1" data-original="#ffc5c5" class=""></path><path fill="#000000" d="M290.4 204.8v24.1c0 12.9-10.5 23.4-23.4 23.4h-30.9c-12.9 0-23.4-10.5-23.4-23.4v-24.1c0-5.9 4.8-10.7 10.7-10.7h56.3c6 0 10.7 4.8 10.7 10.7zM167.5 204.8v24.1c0 12.9-10.5 23.4-23.4 23.4h-30.9c-12.9 0-23.4-10.5-23.4-23.4v-24.1c0-5.9 4.8-10.7 10.7-10.7h56.3c5.9 0 10.7 4.8 10.7 10.7z" opacity="1" data-original="#ffd8cf" class=""></path><path fill="#5b8ae7" d="M59.1 89.3c-4-5.8 34.7-53.6 93.5-68.3 55.5-14 140.7 3.2 79.9 32.2-26.7 13.1-48.3 3.4-75.5 2.7-57.8-1.6-94.2 38.9-97.9 33.4z" opacity="1" data-original="#c7dca7" class=""></path><path fill="#fffdfc" d="M327.9 182.8c-66.2-9-90-32-90-32-67.2 34-185.3 30.6-185.3 30.6 31.5-3.5 73.2-9 107.6-21.2 32.9-11.4 58.9-26.6 77.7-39.9 6.5 9.7 17.3 23.2 33.7 35.6 20.8 15.5 41.4 22.1 54.3 25.1z" opacity="1" data-original="#fff3e8" class=""></path><path fill="#fff0ee" d="M95.7 229.8v-21.6c0-4.2 3.1-7.7 6.9-7.7h50s-48.1 4.9-56.9 29.3zM218 229.8v-21.6c0-4.2 3.1-7.7 6.9-7.7h50s-48.1 4.9-56.9 29.3z" opacity="1" data-original="#fff0ee" class=""></path><path fill="#5b8ae7" d="m304.9 375.8-8.5 27.9C155 346.9 52 506.7 52 506.7v-64.2c-.5-48.9 35.8-92.5 81.9-109.4 14.3 59.7 98.5 59.4 112.5 0 22.6 8.3 44.1 23.9 58.5 42.7z" opacity="1" data-original="#c7dca7" class=""></path><path fill="#fffbf8" d="M315.5 425.1s22.4-108 36-117.4 118.4-7.1 118.4-7.1S348.2 330 315.5 425.1z" opacity="1" data-original="#fffbf8" class=""></path><path fill="#0055fa" d="M188.9 304.9c14.8.1 28.6-6.3 36.8-17.3 1.4-1.9 1-4.6-.9-6s-4.6-1-6 .9c-13.1 18.3-46.5 18.2-59.4 0-1.4-1.9-4.1-2.2-6-.8s-2.2 4.1-.8 6c8.2 10.6 21.7 17 36.3 17.2z" opacity="1" data-original="#2f5b4f" class=""></path><path fill="#0055fa" d="M479.2 277.2H351.7c-11.9 0-24 9.3-27.6 21.1l-21 68.9c-12-13.9-27.9-25.7-45.1-33.8 31.9-18 60-47 70.6-81.6 29.5-8.3 38.6-35.6 36-55.4-.4-7.6-4.3-15-12.3-16.4C392.7-50.1 2.8-67 29.9 179.4c-10.9 1.6-14.5 9.7-14.7 20.5-1 20.6 9.2 44.1 36.2 51.8 11.6 35.4 37.7 64.3 71.7 81.2-44.9 20.3-76.1 64-75.5 109.6v64.2c0 2.4 1.9 4.3 4.3 4.3h358.6c11.9 0 24-9.3 27.6-21.1l57.6-189.2c4-12-3.7-23.8-16.5-23.5zm-239.5 63c-17 44.4-82 44.5-99.3 0 32 10.9 67.4 10.9 99.3 0zM293.6 199c-2.3-5.4-7.6-9.2-13.8-9.2h-56.3c-6.8 0-12.4 4.5-14.3 10.7H171c-1.9-6.2-7.5-10.7-14.3-10.7h-56.3c-6.3 0-11.7 3.9-13.9 9.5l-31.3-9.9c.2-1.4.5-2.8.8-4.1 63.1-6.2 128.4-21.7 180.7-59.1 21.1 29.4 51.9 50.2 87.2 58.7.2.8.4 1.6.6 2.5zm-76.5 5.8c0-3.5 2.9-6.4 6.4-6.4h56.3c3.5 0 6.4 2.9 6.4 6.4v24.1c0 10.5-8.6 19.1-19.1 19.1h-30.9c-10.5 0-19.1-8.6-19.1-19.1zm-53.9 0v24.1c0 10.5-8.6 19.1-19.1 19.1h-30.9c-10.5 0-19.1-8.6-19.1-19.1v-24.1c0-3.5 2.9-6.4 6.4-6.4h56.3c3.5-.1 6.4 2.8 6.4 6.4zm192-12.2c3.7 17.7-.8 37.9-23.7 49.3.5-2.1 1-4.2 1.4-6.3 3.2-16.5 3.2-33.6 0-50.1 4.6.1 9.2.8 13.7 1.7 3.5 1.1 7.7 1.2 8.6 5.4zm-27-114.1c17.6 28.3 23.3 65.2 15.7 99.6-40.6-1.3-77.4-25-100.6-57.6 8.7-10.1 38.8-47.4 45.4-82.4 16.1 10.9 29.5 24.5 39.5 40.4zM69 61.6C118.2 2.3 215.5-5.7 280.8 33.1c-5 37-42.6 80.3-45.8 83.9-55.7 41-129.3 56.7-196.6 60.9-2.7-20.5-5-73.4 30.6-116.3zM28.9 223.7c-5.2-8.5-6.4-21.6-4-31.2.4-1.8 1.8-3.3 3.5-3.8 5.8-1.7 12.7-2.9 18.9-3.1-.1 1-.3 1.9-.5 2.9-2.1 1.2-2.5 4.4-.9 6.1-2 15.8-1.1 32.1 2.7 47.4-11.6-4.7-18.3-15.8-19.7-18.3zm39 44.8C56.3 247 51.6 222.3 54.1 198l31.5 9.9v21c0 15.2 12.4 27.6 27.6 27.6h30.9c15.2 0 27.6-12.4 27.6-27.6V209h36.8v19.9c0 15.2 12.4 27.6 27.6 27.6H267c15.2 0 27.6-12.4 27.6-27.6v-21.2l31.1-11.7c4.8 40.2-10.4 79.4-41 107.4-7.2 6.8-15 12.2-23.3 17.5-4.1 2.8-11.7 7.9-15.1 7.9-64.5 27-145.9 2.8-178.4-60.3zm-11.7 234v-59.9c-.8-43.6 31.2-86 74.8-103.8 17.7 57.8 100.5 57.6 118.2 0 19.6 8.2 38.2 21.7 50.9 37.9l-33.7 110.8c-1.4 5-1.3 10.4 1.1 15zm431.4-204.2L430 487.5c-2.5 8.1-11.4 15-19.5 15H283c-.8 0-1.6-.1-2.4-.2-5.9-1-7.9-7-6.1-12.3l34.4-112.9c-.1-.1 23.2-76.2 23.2-76.3 2.5-8.1 11.4-15 19.5-15h127.5c7.3-.1 10.7 5.6 8.5 12.5z" opacity="1" data-original="#2f5b4f" class=""></path><path fill="#0055fa" d="m426.2 364-66.1 50.6-15.4-22.2c-1.4-1.9-4-2.4-5.9-1.1-1.9 1.4-2.4 4-1.1 5.9l18 25.9c.7 1 1.7 1.6 2.9 1.8 1.1.2 2.3-.1 3.3-.8l69.6-53.4c4.3-3.3-.8-10-5.3-6.7z" opacity="1" data-original="#2f5b4f" class=""></path></g></svg>