<svg xmlns="http://www.w3.org/2000/svg" version="1.1" xmlns:xlink="http://www.w3.org/1999/xlink" width="512" height="512" x="0" y="0" viewBox="0 0 512 512" style="enable-background:new 0 0 512 512" xml:space="preserve" class=""><g><path d="M242.286 36.571h27.429v18.286h-27.429zM256 420.571c-17.643 0-32 14.357-32 32s14.357 32 32 32 32-14.357 32-32-14.357-32-32-32zm0 45.715c-7.563 0-13.714-6.152-13.714-13.714s6.152-13.714 13.714-13.714 13.714 6.152 13.714 13.714-6.151 13.714-13.714 13.714z" fill="#0055fa" opacity="1" data-original="#000000"></path><path d="M406.804 0H105.196C79.964 0 59.429 20.478 59.429 45.647v420.705c0 25.17 20.536 45.647 45.768 45.647h301.607c25.232 0 45.768-20.478 45.768-45.647V45.647C452.571 20.478 432.036 0 406.804 0zm27.482 466.353c0 15.089-12.33 27.362-27.482 27.362H105.196c-15.152 0-27.482-12.272-27.482-27.362V45.647c0-15.089 12.33-27.362 27.482-27.362h301.607c15.152 0 27.482 12.272 27.482 27.362v420.706z" fill="#0055fa" opacity="1" data-original="#000000"></path></g></svg>