<svg xmlns="http://www.w3.org/2000/svg" version="1.1" xmlns:xlink="http://www.w3.org/1999/xlink" width="512" height="512" x="0" y="0" viewBox="0 0 60 60" style="enable-background:new 0 0 512 512" xml:space="preserve" class=""><g><g fill="#34498c"><path d="M8.74 28H1a1 1 0 0 1 0-2h7.74a1 1 0 1 1 0 2zM4 43H2v-7a3 3 0 0 1 3-3h5v2H5a1 1 0 0 0-1 1zM10 21H5a3 3 0 0 1-3-3v-7h2v7a1 1 0 0 0 1 1h5zM27 54a1 1 0 0 1-1-1v-7.74a1 1 0 1 1 2 0V53a1 1 0 0 1-1 1zM18 52h-7v-2h7a1 1 0 0 0 1-1v-5h2v5a3 3 0 0 1-3 3zM49 21h-5v-2h5a1 1 0 0 0 1-1v-7h2v7a3 3 0 0 1-3 3zM27 9.74a1 1 0 0 1-1-1V1a1 1 0 0 1 2 0v7.74a1 1 0 0 1-1 1zM21 10h-2V5a1 1 0 0 0-1-1h-7V2h7a3 3 0 0 1 3 3zM35 10h-2V5a3 3 0 0 1 3-3h7v2h-7a1 1 0 0 0-1 1z" fill="#ffffff" opacity="1" data-original="#34498c" class=""></path></g><path fill="#262626" d="M33.5 45.92a20 20 0 1 1 13.48-19.69z" opacity="1" data-original="#818cff" class=""></path><circle cx="3" cy="43" r="2" fill="#262626" opacity="1" data-original="#e8bc5b" class=""></circle><circle cx="3" cy="11" r="2" fill="#262626" opacity="1" data-original="#e8bc5b" class=""></circle><circle cx="11" cy="51" r="2" fill="#262626" opacity="1" data-original="#e8bc5b" class=""></circle><circle cx="51" cy="11" r="2" fill="#262626" opacity="1" data-original="#e8bc5b" class=""></circle><circle cx="11" cy="3" r="2" fill="#262626" opacity="1" data-original="#e8bc5b" class=""></circle><circle cx="43" cy="3" r="2" fill="#262626" opacity="1" data-original="#e8bc5b" class=""></circle><path fill="#ffffff" d="M33 23h-2v-6a4 4 0 0 0-8 0v6h-2v-6a6 6 0 0 1 12 0z" opacity="1" data-original="#34498c" class=""></path><path fill="#ffffff" d="M33 40H21a3 3 0 0 1-3-3V25a3 3 0 0 1 3-3h12a3 3 0 0 1 3 3v3.25z" opacity="1" data-original="#ffffff" class=""></path><circle cx="27" cy="30" r="2" fill="#181819" opacity="1" data-original="#bfdbf0" class=""></circle><path fill="#ffffff" d="m46.8 58.834 1.38-.6A18 18 0 0 0 59 41.727v-11.31a1.992 1.992 0 0 0-1.735-1.982c-2.623-.341-7.6-1.1-10.528-2.29a1.949 1.949 0 0 0-1.474 0c-2.926 1.187-7.905 1.949-10.528 2.29A1.992 1.992 0 0 0 33 30.417v11.31a18 18 0 0 0 10.823 16.507l1.38.6a2 2 0 0 0 1.597 0z" opacity="1" data-original="#e1efff" class=""></path><path fill="#262626" d="M45.416 54.566A14.015 14.015 0 0 1 37 41.718V33.39a1.433 1.433 0 0 1 1.2-1.417 49.918 49.918 0 0 0 7.354-1.673 1.407 1.407 0 0 1 .893 0 49.973 49.973 0 0 0 7.353 1.673A1.432 1.432 0 0 1 55 33.39v8.337a14 14 0 0 1-8.427 12.844 1.443 1.443 0 0 1-1.147 0z" opacity="1" data-original="#e8bc5b" class=""></path><path fill="#181819" d="M27 35a1 1 0 0 1-1-1v-3a1 1 0 0 1 2 0v3a1 1 0 0 1-1 1z" opacity="1" data-original="#bfdbf0" class=""></path><path fill="#ffffff" d="M44 46a.993.993 0 0 1-.707-.293l-1-1a1 1 0 0 1 1.414-1.414l.226.226 4.3-5.16a1 1 0 1 1 1.538 1.282l-5 6a1.007 1.007 0 0 1-.724.358z" opacity="1" data-original="#ffffff" class=""></path></g></svg>