<svg xmlns="http://www.w3.org/2000/svg" version="1.1" xmlns:xlink="http://www.w3.org/1999/xlink" width="512" height="512" x="0" y="0" viewBox="0 0 65 65" style="enable-background:new 0 0 512 512" xml:space="preserve" class=""><g><path d="M32.834 60.858h-2.687a.5.5 0 0 0 0 1h2.687a.5.5 0 0 0 0-1Z" fill="#ffffff" opacity="1" data-original="#000000" class=""></path><path d="M62.147 27.208h-3.768v-4.455a5.138 5.138 0 0 0-5.132-5.132H43.171a5.138 5.138 0 0 0-5.132 5.132v4.455H23.246v-3.955h4.923a2.221 2.221 0 0 0 2.218-2.218V8.256a2.221 2.221 0 0 0-2.218-2.218H8.839a2.221 2.221 0 0 0-2.218 2.218v12.779a2.221 2.221 0 0 0 2.218 2.218h4.923v3.955H2.853A2.356 2.356 0 0 0 .5 29.561v29.944a2.356 2.356 0 0 0 2.353 2.353h20.808a.5.5 0 1 0 0-1H2.853A1.355 1.355 0 0 1 1.5 59.505V29.561a1.355 1.355 0 0 1 1.353-1.353h59.294a1.355 1.355 0 0 1 1.353 1.353v29.944a1.355 1.355 0 0 1-1.353 1.353H48.556a.5.5 0 0 0 0 1h13.591a2.356 2.356 0 0 0 2.353-2.353V29.561a2.356 2.356 0 0 0-2.353-2.353Zm-23.108-4.455a4.137 4.137 0 0 1 4.132-4.132h10.076a4.137 4.137 0 0 1 4.132 4.132v4.455h-4.1v-2.276a.5.5 0 0 0-1 0v2.276h-8.145v-2.276a.5.5 0 0 0-1 0v2.276h-4.095ZM7.621 21.035V8.256a1.22 1.22 0 0 1 1.218-1.218h19.33a1.219 1.219 0 0 1 1.218 1.218v12.779a1.219 1.219 0 0 1-1.218 1.218H8.839a1.22 1.22 0 0 1-1.218-1.218Zm7.141 2.218h7.484v3.955h-7.484Z" fill="#ffffff" opacity="1" data-original="#000000" class=""></path><path d="M42.07 60.858h-2.751a.5.5 0 0 0 0 1h2.751a.5.5 0 0 0 0-1ZM52.829 55.8a5.619 5.619 0 0 1 5.612-5.613.5.5 0 0 0 .5-.5V39.376a.5.5 0 0 0-.5-.5 5.619 5.619 0 0 1-5.612-5.613.5.5 0 0 0-.5-.5H12.671a.5.5 0 0 0-.5.5 5.619 5.619 0 0 1-5.612 5.613.5.5 0 0 0-.5.5v10.306a.5.5 0 0 0 .149.357.468.468 0 0 0 .359.143 5.344 5.344 0 0 1 3.916 1.573 5.626 5.626 0 0 1 1.688 4.04.5.5 0 0 0 .5.5h39.658a.5.5 0 0 0 .5-.495Zm-39.676-.5a6.605 6.605 0 0 0-1.969-4.253 6.409 6.409 0 0 0-4.125-1.848v-9.342a6.624 6.624 0 0 0 6.094-6.094h38.694a6.624 6.624 0 0 0 6.094 6.094V49.2a6.624 6.624 0 0 0-6.094 6.1ZM48.209 14.722a5.79 5.79 0 1 0-5.79-5.79 5.8 5.8 0 0 0 5.79 5.79Zm0-10.58a4.79 4.79 0 1 1-4.79 4.79 4.8 4.8 0 0 1 4.79-4.79Z" fill="#ffffff" opacity="1" data-original="#000000" class=""></path><path d="M23.987 44.072a.5.5 0 0 0-.5.5v4.3a.5.5 0 0 0 1 0v-4.3a.5.5 0 0 0-.5-.5ZM23.987 42.256a.5.5 0 0 0-.5.5v.316a.5.5 0 0 0 1 0v-.316a.5.5 0 0 0-.5-.5ZM22.719 40.572h-6.1a.5.5 0 0 0 0 1h2.55v7.3a.5.5 0 0 0 1 0v-7.3h2.55a.5.5 0 0 0 0-1ZM31.065 47.127a.5.5 0 0 0-.674.213 1.722 1.722 0 0 1-1.482 1.029 2.378 2.378 0 0 1 0-4.6 1.715 1.715 0 0 1 1.454.977.5.5 0 1 0 .876-.483 2.7 2.7 0 0 0-2.33-1.494 3.079 3.079 0 0 0-2.782 3.3 3.079 3.079 0 0 0 2.782 3.3 2.7 2.7 0 0 0 2.369-1.569.5.5 0 0 0-.213-.673ZM37.135 42.6a.5.5 0 0 0-.707 0l-2.6 2.6v-5.01a.5.5 0 0 0-1 0v8.679a.5.5 0 0 0 1 0v-2.255l.553-.552 1.982 3.077a.5.5 0 0 0 .837-.539l-2.1-3.259 2.033-2.033a.5.5 0 0 0 .002-.708ZM41.216 42.481a3.307 3.307 0 0 0 0 6.6 3.033 3.033 0 0 0 2.421-1.229.5.5 0 1 0-.8-.6 2.041 2.041 0 0 1-1.625.834 2.215 2.215 0 0 1-2.11-2.3q0-.106.009-.21H43.5a.5.5 0 0 0 .5-.555 2.754 2.754 0 0 0-2.784-2.54Zm-1.794 2.091a2.077 2.077 0 0 1 1.794-1.091 1.7 1.7 0 0 1 1.655 1.091ZM47.982 48.132a.6.6 0 0 1-1.072-.36v-4.124h.749a.5.5 0 0 0 0-1h-.749v-.919a.5.5 0 0 0-1 0v.919h-.749a.5.5 0 0 0 0 1h.749v4.124a1.6 1.6 0 0 0 2.87.963.5.5 0 1 0-.8-.6Z" fill="#ffffff" opacity="1" data-original="#000000" class=""></path></g></svg>