<svg xmlns="http://www.w3.org/2000/svg" version="1.1" xmlns:xlink="http://www.w3.org/1999/xlink" width="512" height="512" x="0" y="0" viewBox="0 0 512 512" style="enable-background:new 0 0 512 512" xml:space="preserve" class=""><g><path d="M346.5 213.5a7.5 7.5 0 0 0 7.5-7.5v-25c0-4.142-3.357-7.5-7.5-7.5s-7.5 3.358-7.5 7.5v25a7.5 7.5 0 0 0 7.5 7.5zM339 267c0 4.142 3.357 7.5 7.5 7.5s7.5-3.358 7.5-7.5v-23c0-4.142-3.357-7.5-7.5-7.5s-7.5 3.358-7.5 7.5zM339 330c0 4.142 3.357 7.5 7.5 7.5s7.5-3.358 7.5-7.5v-24c0-4.142-3.357-7.5-7.5-7.5s-7.5 3.358-7.5 7.5z" fill="#ffffff" opacity="1" data-original="#000000" class=""></path><path d="M496.86 214.184c8.772-1.59 15.14-9.238 15.14-18.186V126c0-15.164-12.337-27.5-27.5-27.5h-111c-10.926 0-20.674 5.111-27 13.061-6.326-7.95-16.074-13.061-27-13.061H102c-4.143 0-7.5 3.358-7.5 7.5s3.357 7.5 7.5 7.5h217.5c10.752 0 19.5 8.748 19.5 19.5v11.988c0 4.142 3.357 7.5 7.5 7.5s7.5-3.358 7.5-7.5V133c0-10.752 8.748-19.5 19.5-19.5h111c6.893 0 12.5 5.607 12.5 12.5v69.998c0 1.69-1.184 3.131-2.815 3.426C466.844 204.38 447 228.174 447 256s19.844 51.62 47.185 56.576c1.632.295 2.815 1.736 2.815 3.426V345.5c0 4.142 3.357 7.5 7.5 7.5s7.5-3.358 7.5-7.5v-29.498c0-8.948-6.367-16.596-15.14-18.186C476.661 294.155 462 276.568 462 256s14.661-38.155 34.86-41.816zM504.5 373a7.5 7.5 0 0 0-7.5 7.5v5.5c0 6.893-5.607 12.5-12.5 12.5h-111c-10.752 0-19.5-8.748-19.5-19.5v-13c0-4.142-3.357-7.5-7.5-7.5s-7.5 3.358-7.5 7.5v13c0 10.752-8.748 19.5-19.5 19.5h-292c-6.893 0-12.5-5.607-12.5-12.5v-69.998c0-1.689 1.184-3.131 2.815-3.426C45.156 307.62 65 283.826 65 256s-19.844-51.62-47.185-56.576c-1.632-.295-2.815-1.737-2.815-3.426V126c0-6.893 5.607-12.5 12.5-12.5H67c4.143 0 7.5-3.358 7.5-7.5s-3.357-7.5-7.5-7.5H27.5C12.337 98.5 0 110.836 0 126v69.998c0 8.947 6.367 16.596 15.14 18.186C35.339 217.845 50 235.432 50 256s-14.661 38.155-34.86 41.816C6.367 299.407 0 307.055 0 316.002V386c0 15.164 12.337 27.5 27.5 27.5h292c10.926 0 20.674-5.111 27-13.061 6.326 7.95 16.074 13.061 27 13.061h111c15.163 0 27.5-12.336 27.5-27.5v-5.5a7.5 7.5 0 0 0-7.5-7.5z" fill="#ffffff" opacity="1" data-original="#000000" class=""></path><path d="M108 256a7.5 7.5 0 0 0 7.5 7.5h169c4.143 0 7.5-3.358 7.5-7.5s-3.357-7.5-7.5-7.5h-169a7.5 7.5 0 0 0-7.5 7.5zM115.5 323.5H197c4.143 0 7.5-3.358 7.5-7.5s-3.357-7.5-7.5-7.5h-81.5c-4.143 0-7.5 3.358-7.5 7.5s3.357 7.5 7.5 7.5zM248.5 203.5c4.143 0 7.5-3.358 7.5-7.5s-3.357-7.5-7.5-7.5h-97c-4.143 0-7.5 3.358-7.5 7.5s3.357 7.5 7.5 7.5zM284.5 308.5H242c-4.143 0-7.5 3.358-7.5 7.5s3.357 7.5 7.5 7.5h42.5c4.143 0 7.5-3.358 7.5-7.5s-3.357-7.5-7.5-7.5z" fill="#ffffff" opacity="1" data-original="#000000" class=""></path></g></svg>