<svg xmlns="http://www.w3.org/2000/svg" version="1.1" xmlns:xlink="http://www.w3.org/1999/xlink" width="512" height="512" x="0" y="0" viewBox="0 0 256 256" style="enable-background:new 0 0 512 512" xml:space="preserve" class=""><g><circle cx="128" cy="128" r="116" fill="#e5e5e5" stroke="#efedfc" stroke-miterlimit="10" opacity="1" data-original="#e8f4f0" class=""></circle><path fill="#010101" fill-rule="evenodd" d="M128 78.748c-14.883 0-28.71 7.55-39.867 16.79a142.575 142.575 0 0 0-26.614 30.08 4.522 4.522 0 0 0 0 4.764 142.575 142.575 0 0 0 26.614 30.08c11.158 9.24 24.984 16.79 39.867 16.79s28.71-7.55 39.867-16.79a142.575 142.575 0 0 0 26.614-30.08 4.522 4.522 0 0 0 0-4.764 142.575 142.575 0 0 0-26.614-30.08c-11.158-9.24-24.984-16.79-39.867-16.79zm.573 27.08a22.387 22.387 0 1 0 22.387 22.387 22.401 22.401 0 0 0-22.387-22.387z" opacity="1" data-original="#19916b" class=""></path></g></svg>