<svg xmlns="http://www.w3.org/2000/svg" version="1.1" xmlns:xlink="http://www.w3.org/1999/xlink" width="512" height="512" x="0" y="0" viewBox="0 0 512 512" style="enable-background:new 0 0 512 512" xml:space="preserve" class=""><g><path d="M498.82 139.865 270.179 7.885c-9.008-5.203-19.341-5.203-28.347 0L13.188 139.866c-4.927 2.846-8.454 7.45-9.932 12.964-1.478 5.516-.725 11.267 2.126 16.202 3.961 6.831 11.152 10.654 18.53 10.653 3.615 0 7.275-.918 10.621-2.85l.34-.196v289.597H23.024c-6.955 0-12.614 5.671-12.614 12.642v16.498c0 6.971 5.659 12.642 12.614 12.642h465.931c6.972 0 12.644-5.671 12.644-12.642v-16.498c0-6.971-5.672-12.642-12.644-12.642h-11.819V176.639l.338.195c10.177 5.875 23.251 2.375 29.158-7.812 5.876-10.174 2.376-23.251-7.812-29.158zm-9.24 339.012v16.498a.632.632 0 0 1-.624.624H23.025c-.317 0-.595-.292-.595-.624v-16.498c0-.332.277-.624.595-.624h465.931c.339 0 .624.286.624.624zm-71.15-12.642h-44.984v-99.439c0-6.612-5.38-11.991-11.991-11.991h-43.738v-99.439c0-6.611-5.38-11.99-11.991-11.99h-99.468c-6.596 0-11.962 5.379-11.962 11.99v99.439h-43.738c-6.611 0-11.991 5.379-11.991 11.991v99.439H93.582V208.793h324.85v257.443zm-156.415 0v-99.412l29.452-.008v44.569a6.009 6.009 0 0 0 6.01 6.009h28.459a6.01 6.01 0 0 0 6.01-6.009v-44.581l29.48-.008.028 99.439h-99.439zm-111.43 0-.028-99.412 29.479-.008v44.569a6.009 6.009 0 0 0 6.01 6.009h28.488a6.01 6.01 0 0 0 6.01-6.009v-44.581l29.451-.008v99.439h-99.41zm55.367-99.427c.102.003.202.016.305.016.105 0 .208-.01.312-.016h1.956v38.567h-16.469v-38.563zm.305-111.414 29.509-.008v44.569a6.009 6.009 0 0 0 6.01 6.009h28.46a6.01 6.01 0 0 0 6.01-6.009v-44.581l29.451-.008.028 99.439h-43.738c-2.179 0-4.218.594-5.981 1.614a11.904 11.904 0 0 0-5.981-1.614h-43.71zm57.969-.016v38.568h-16.44v-38.563zm39.261 111.435h1.997c.081.003.16.012.241.012.082 0 .161-.011.243-.012l13.958-.004v38.568h-16.439v-38.563zm161.631 99.423H430.45V202.783a6.009 6.009 0 0 0-6.01-6.009H87.57a6.01 6.01 0 0 0-6.01 6.009v263.452H46.893V169.699l209.111-120.73L465.116 169.7v296.535zm31.112-303.232c-2.582 4.454-8.297 5.989-12.744 3.423L259.009 36.826a6.008 6.008 0 0 0-6.01 0l-224.475 129.6c-4.448 2.567-10.161 1.031-12.738-3.414a9.257 9.257 0 0 1-.92-7.072 9.263 9.263 0 0 1 4.332-5.666L247.84 18.293h.002c2.632-1.521 5.396-2.281 8.162-2.281s5.532.761 8.165 2.281l228.633 131.976c4.454 2.583 5.989 8.299 3.427 12.735z" fill="#ffffff" opacity="1" data-original="#000000"></path></g></svg>