<svg xmlns="http://www.w3.org/2000/svg" version="1.1" xmlns:xlink="http://www.w3.org/1999/xlink" width="512" height="512" x="0" y="0" viewBox="0 0 24 24" style="enable-background:new 0 0 512 512" xml:space="preserve" class=""><g><path fill="#0055fa" fill-rule="evenodd" d="M10.303 2a2 2 0 0 0-1.664.89L7.232 5H7a2 2 0 0 0-2 2v10a2 2 0 0 0 2 2h.232l1.407 2.11a2 2 0 0 0 1.664.89h3.394a2 2 0 0 0 1.664-.89L16.768 19H17a2 2 0 0 0 2-2V7a2 2 0 0 0-2-2h-.232L15.36 2.89A2 2 0 0 0 13.697 2zm5.263 3H8.434l1.037-1.555A1 1 0 0 1 10.303 3h3.394a1 1 0 0 1 .832.445zM9.47 20.555 8.434 19h7.132l-1.037 1.555a1 1 0 0 1-.832.445h-3.394a1 1 0 0 1-.832-.445zM6 7a1 1 0 0 1 1-1h10a1 1 0 0 1 1 1v10a1 1 0 0 1-1 1H7a1 1 0 0 1-1-1zm6 2a.5.5 0 0 0-1 0v3.5a.5.5 0 0 0 .223.416l3 2a.5.5 0 0 0 .554-.832L12 12.232z" clip-rule="evenodd" opacity="1" data-original="#292d3d" class=""></path></g></svg>