<svg xmlns="http://www.w3.org/2000/svg" version="1.1" xmlns:xlink="http://www.w3.org/1999/xlink" width="512" height="512" x="0" y="0" viewBox="0 0 512 512" style="enable-background:new 0 0 512 512" xml:space="preserve" class=""><g><linearGradient id="b" x1="325.71" x2="154.33" y1="325.71" y2="154.32" gradientUnits="userSpaceOnUse"><stop offset="0" stop-color="#bce4ed"></stop><stop offset=".57" stop-color="#fff"></stop><stop offset="1" stop-color="#fff"></stop></linearGradient><linearGradient id="a" x1="408.08" x2="116.34" y1="408.08" y2="116.34" gradientUnits="userSpaceOnUse"><stop stop-opacity="1" stop-color="#0055fa" offset="0"></stop><stop stop-opacity="1" stop-color="#0055fa" offset="0.54"></stop><stop stop-opacity="1" stop-color="#0055fa" offset="1"></stop></linearGradient><linearGradient id="c" x1="423.35" x2="250.79" y1="423.37" y2="250.81" gradientUnits="userSpaceOnUse"><stop stop-opacity="1" stop-color="#0055fa" offset="0"></stop><stop stop-opacity="1" stop-color="#0055fa" offset="1"></stop></linearGradient><linearGradient xlink:href="#a" id="d" x1="279.5" x2="178.26" y1="279.53" y2="178.3"></linearGradient><path fill="#e5eeff" d="M496.52 129.85C483.09 80.37 431.63 28.92 382.15 15.48 351.82 7.92 311.17.13 256 0c-55.17.14-95.81 7.92-126.15 15.49C80.38 28.92 28.92 80.37 15.49 129.85 7.92 160.19.14 200.83 0 256c.14 55.17 7.92 95.81 15.49 126.15 13.44 49.48 64.89 100.93 114.37 114.37 30.34 7.57 70.98 15.35 126.15 15.49 55.16-.14 95.81-7.92 126.15-15.49 49.48-13.44 100.93-64.89 114.37-114.37 7.57-30.33 15.35-70.98 15.49-126.15-.14-55.17-7.92-95.81-15.49-126.15z" opacity="1" data-original="#dff8ff" class=""></path><path fill="url(#b)" d="M233.61 342.79c-29.16 0-56.58-11.36-77.21-31.98-20.62-20.62-31.98-48.04-31.98-77.21s11.36-56.58 31.98-77.2 48.04-31.98 77.21-31.98 56.58 11.36 77.21 31.98c20.62 20.62 31.98 48.04 31.98 77.2s-11.36 56.58-31.98 77.21c-20.62 20.62-48.04 31.98-77.21 31.98z" opacity="1" data-original="url(#b)" class=""></path><path fill="url(#a)" d="M233.61 85.88c-81.59 0-147.73 66.14-147.73 147.73s66.14 147.73 147.73 147.73 147.73-66.14 147.73-147.73S315.2 85.88 233.61 85.88zm77.2 224.93c-20.62 20.62-48.04 31.98-77.21 31.98s-56.58-11.36-77.21-31.98c-20.62-20.62-31.98-48.04-31.98-77.21s11.36-56.58 31.98-77.2 48.04-31.98 77.21-31.98 56.58 11.36 77.21 31.98c20.62 20.62 31.98 48.04 31.98 77.2s-11.36 56.58-31.98 77.21z" opacity="1" data-original="url(#a)" class=""></path><path fill="url(#c)" d="m421.9 371.18-.6-.81c-12.47-14.44-27.79-25.01-42.6-35.24-6.05-4.18-16.79-10.9-24.39-16.31a148.496 148.496 0 0 1-35.56 35.53c5.41 7.6 12.13 18.33 16.31 24.37 10.24 14.81 20.82 30.12 35.27 42.58l.82.6c4.57 2.84 9.87 4.23 15.27 4.23 7.84 0 15.87-2.93 22.03-8.55l8.92-8.9.21-.22c9.49-10.39 11.31-26.07 4.33-37.28z" opacity="1" data-original="url(#c)" class=""></path></g></svg>